<svg clip-rule="evenodd" fill-rule="evenodd" stroke-linejoin="round" stroke-miterlimit="2" viewBox="0 0 600 567" xmlns="http://www.w3.org/2000/svg" xmlns:xlink="http://www.w3.org/1999/xlink"><clipPath id="a"><path clip-rule="evenodd" d="m0 0h600v566.927h-600z"/></clipPath><path d="m0 0h600v566.927h-600z" fill="none"/><g clip-path="url(#a)"><g fill-rule="nonzero"><path d="m319.295 555.923 280.701-162.264-319.316-184.401-280.68 162.245z" fill="#f7d9b7"/><path d="m319.295 555.923v8.844l280.701-162.264v-8.844z" fill="#e2bca5"/><path d="m-0 371.503v8.842l319.295 184.422v-8.844z" fill="#cca193"/><path d="m390.339 353.504 139.113 80.937-50.551 29.223-138.987-80.875z" fill="#38833a"/><path d="m451.982 317.591 139.35 81.078-50.526 29.206-139.25-80.997z" fill="#38833a"/><path d="m300.446 5.74v205.128c0 3.17-5.597 5.741-12.502 5.741-6.904 0-12.502-2.571-12.502-5.741v-205.128h25.004z" fill="#e0e4e4"/><path d="m275.442 5.74c0 3.17 5.598 5.74 12.502 5.74 6.905 0 12.502-2.57 12.502-5.74s-5.597-5.74-12.502-5.74c-6.904 0-12.502 2.57-12.502 5.74z" fill="#feffff"/><path d="m278.706 5.74c0 1.954 4.136 3.538 9.238 3.538s9.238-1.584 9.238-3.538-4.136-3.538-9.238-3.538-9.238 1.584-9.238 3.538z" fill="#808184"/><path d="m287.943 96.467c-5.87 0-10.838-1.774-12.501-4.217v-59.34c0 3.171 5.597 5.74 12.501 5.74 6.905 0 12.503-2.569 12.503-5.74v59.34c-1.663 2.443-6.631 4.217-12.503 4.217z" fill="#aa353a"/><path d="m258.956 29.744v205.129c0 3.171-5.597 5.741-12.502 5.741s-12.503-2.57-12.503-5.741v-205.129z" fill="#e0e4e4"/><path d="m233.951 29.744c0 3.171 5.598 5.741 12.503 5.741s12.502-2.57 12.502-5.741c0-3.169-5.597-5.739-12.502-5.739s-12.503 2.57-12.503 5.739z" fill="#feffff"/><path d="m237.216 29.744c0 1.956 4.135 3.539 9.238 3.539 5.102 0 9.239-1.583 9.239-3.539 0-1.953-4.137-3.537-9.239-3.537-5.103 0-9.238 1.584-9.238 3.537z" fill="#808184"/><path d="m246.453 120.472c-5.87 0-10.839-1.774-12.502-4.217v-59.339c0 3.169 5.598 5.739 12.502 5.739 6.905 0 12.503-2.57 12.503-5.739v59.339c-1.663 2.443-6.631 4.217-12.503 4.217z" fill="#aa353a"/><path d="m217.466 53.75v205.129c0 3.17-5.597 5.74-12.502 5.74s-12.503-2.57-12.503-5.74v-205.129z" fill="#e0e4e4"/><path d="m192.461 53.75c0 3.171 5.598 5.74 12.503 5.74s12.502-2.569 12.502-5.74c0-3.17-5.597-5.74-12.502-5.74s-12.503 2.57-12.503 5.74z" fill="#feffff"/><path d="m195.725 53.75c0 1.955 4.136 3.539 9.239 3.539 5.102 0 9.239-1.584 9.239-3.539 0-1.953-4.137-3.538-9.239-3.538-5.103 0-9.239 1.585-9.239 3.538z" fill="#808184"/><path d="m204.964 144.478c-5.871 0-10.84-1.774-12.503-4.218v-59.339c0 3.17 5.598 5.74 12.503 5.74 6.904 0 12.502-2.57 12.502-5.74v59.339c-1.664 2.444-6.631 4.218-12.502 4.218z" fill="#aa353a"/><path d="m259.839 351.724-147.611-86.231v78.03l147.611 85.866z" fill="#d3d3d3"/><path d="m312.091 148.827-199.863 116.666 147.591 86.253 200.208-116.877z" fill="#aa353a"/><path d="m460.031 234.866-200.212 116.88.02 77.643 200.192-116.489z" fill="#e0e4e4"/><path d="m202.496 287.098-90.268-52.689v31.99l90.268 52.366z" fill="#d3d3d3"/><path d="m228.997 166.469-116.787 67.959 90.268 52.689 117.074-68.125z" fill="#feffff"/><path d="m319.556 218.989-117.078 68.128.018 31.648 117.06-67.782z" fill="#e0e4e4"/><path d="m202.464 253.98-90.268-52.689v16.662l90.268 52.366z" fill="#d3d3d3"/><path d="m228.965 133.351-116.788 67.959 90.269 52.689 117.073-68.125z" fill="#feffff"/><path d="m319.523 185.871-117.077 68.128.018 16.32 117.059-67.782z" fill="#e0e4e4"/><path d="m202.464 270.319-83.59-48.493v12.318l83.59 48.494z" fill="#536276"/><path d="m310.845 207.562-108.381 62.757v12.319l108.381-63.097z" fill="#5e6d7d"/><path d="m227.42 136.929-103.057 59.97 79.656 46.494 103.31-60.116z" fill="#feffff"/><path d="m124.363 196.899-12.188 4.411 90.269 52.689 1.575-10.606z" fill="#e2e4e5"/><path d="m204.019 243.393-1.575 10.606 117.077-68.128-12.192-2.594z" fill="#d3d3d3"/><path d="m307.329 183.277 12.192 2.594-90.559-52.52-1.542 3.578z" fill="#e2e4e5"/><path d="m112.175 201.31 12.188-4.411 103.057-59.97 1.542-3.578z" fill="#d3d3d3"/><path d="m401.636 342.25 46.373-26.965 3.981 2.306-50.354 29.303z" fill="#f3f3f5"/><path d="m448.009 315.285v-40.272l-46.373 26.769v40.468z" fill="#6d7374"/><path d="m451.99 272.716v44.875l-3.981-2.306v-40.272z" fill="#d3d3d3"/><path d="m339.914 378.145 46.373-26.963 3.98 2.306-50.353 29.301z" fill="#f3f3f5"/><path d="m386.287 351.182v-40.273l-46.373 26.77v40.466z" fill="#9b7371"/><path d="m390.267 308.612v44.876l-3.98-2.306v-40.273z" fill="#d3d3d3"/><path d="m143.518 369.484v29.135l22.734-13.119v-29.134z" fill="#d18084"/><path d="m143.518 369.484v29.135l-69.524-40.145v-29.136z" fill="#5d0b0e"/><path d="m136.306 371.041v9.07l-21.643-12.498v-9.069z" fill="#c6dae7"/><path d="m136.306 383.839v6.209l-14.815-8.554v-6.208z" fill="#c6dae7"/><path d="m166.252 356.366-22.734 13.118-69.524-40.146 22.733-13.117z" fill="#aa353a"/><path d="m106.798 390.88v29.135l22.734-13.119v-29.136z" fill="#d18084"/><path d="m106.798 390.88v29.135l-69.525-40.147v-29.135z" fill="#5d0b0e"/><path d="m99.586 392.436v9.067l-21.643-12.493v-9.072z" fill="#c6dae7"/><path d="m99.586 405.235v6.209l-14.815-8.554v-6.208z" fill="#c6dae7"/><path d="m129.532 377.76-22.734 13.12-69.525-40.147 22.734-13.118z" fill="#aa353a"/><path d="m142.315 314.157v-11.22l-17.068-9.875v11.155z" fill="#5e6d7d"/><path d="m125.247 293.062 2.169 1.24v8.703l-2.169 1.212z" fill="#e0e4e4"/><path d="m127.416 303.005 14.899 8.592v2.56l-17.068-9.94z" fill="#feffff"/><path d="m167.958 329.103v-11.219l-17.067-9.875v11.154z" fill="#5e6d7d"/><path d="m150.891 308.009 2.169 1.24v8.702l-2.169 1.212z" fill="#e0e4e4"/><path d="m153.06 317.951 14.898 8.592v2.56l-17.067-9.94z" fill="#feffff"/><path d="m193.602 344.05v-11.219l-17.068-9.877v11.156z" fill="#5e6d7d"/><path d="m176.534 322.954 2.169 1.241v8.702l-2.169 1.213z" fill="#e0e4e4"/><path d="m178.703 332.897 14.899 8.593v2.56l-17.068-9.94z" fill="#feffff"/><path d="m219.246 358.996v-11.219l-17.068-9.876v11.154z" fill="#5e6d7d"/><path d="m202.178 337.901 2.169 1.239v8.703l-2.169 1.212z" fill="#e0e4e4"/><path d="m204.347 347.843 14.899 8.593v2.56l-17.068-9.941z" fill="#feffff"/><path d="m244.889 373.942v-11.219l-17.068-9.875v11.154z" fill="#5e6d7d"/><path d="m227.821 352.848 2.17 1.239v8.703l-2.17 1.212z" fill="#e0e4e4"/><path d="m229.991 362.79 14.898 8.592v2.56l-17.068-9.94z" fill="#feffff"/><path d="m365.115 455.526-18.52-10.79-1.377-5.952-4.484 2.538-36.636-21.345 26.782-15.805 35.668 20.786-2.154 1.215 2.676 11.564 10.866-6.146 13.963 8.138z" fill="#d1b89c"/><path d="m348.53 436.123-39.215-22.321 2.114-1.694 37.101 22.119z" fill="#240d21"/><path d="m308.105 415.479 3.809-2.429-3.809-2.203z" fill="#240d21"/><path d="m318.725 427.741.047-.038c.043-.038.084-.071.125-.113l.02-.017c.046-.046.091-.093.135-.143l.036-.042c.032-.038.064-.076.093-.114l.04-.05c.032-.042.063-.088.092-.135l.025-.037c.04-.059.078-.122.114-.19.037-.067.071-.134.104-.201l.015-.034c.026-.059.051-.113.073-.172l.021-.051.038-.109c.019-.055.038-.114.057-.172l.033-.114c.013-.046.026-.097.038-.147.011-.042.021-.084.03-.13.009-.042.018-.084.026-.131.009-.046.017-.096.025-.147.007-.038.013-.075.018-.117.008-.055.014-.11.019-.164l.012-.114c.006-.063.011-.13.015-.197l.004-.08c.005-.097.008-.198.009-.299 0-.096-.003-.193-.006-.294l-.005-.097c-.003-.067-.007-.138-.013-.206l-.008-.105c-.007-.071-.014-.147-.022-.218l-.01-.089c-.013-.101-.026-.206-.043-.306l-.007-.038c-.014-.093-.03-.181-.048-.269l-.022-.11c-.014-.071-.029-.138-.043-.21-.01-.038-.019-.075-.029-.118-.015-.067-.033-.134-.049-.201-.01-.038-.021-.076-.032-.118-.019-.071-.041-.143-.062-.214l-.029-.101c-.031-.105-.064-.21-.1-.316l-.008-.021c-.032-.096-.066-.193-.101-.29l-.035-.092c-.027-.071-.056-.147-.084-.219l-.042-.105c-.03-.071-.062-.147-.094-.222l-.035-.08c-.044-.101-.089-.202-.136-.303l-.037-.076c-.036-.075-.074-.151-.112-.227-.028-.059-.057-.109-.084-.164-.028-.054-.054-.105-.082-.155-.075-.143-.153-.282-.234-.416-.027-.051-.055-.097-.083-.143-.034-.055-.068-.109-.103-.168-.031-.051-.062-.097-.094-.147-.035-.055-.07-.11-.106-.164l-.071-.105c-.1-.152-.203-.299-.308-.442l-.003-.004c-.075-.101-.151-.198-.228-.299-.06-.075-.121-.151-.182-.222l-.035-.047c-.074-.088-.147-.172-.222-.26l-.066-.072c-.053-.058-.107-.117-.16-.176l-.094-.097c-.047-.05-.094-.101-.141-.147l-.102-.101c-.046-.046-.093-.088-.139-.134l-.111-.101c-.045-.042-.091-.084-.138-.126l-.112-.097c-.047-.042-.094-.08-.141-.122l-.111-.088c-.05-.042-.1-.08-.151-.118l-.103-.08c-.055-.042-.111-.08-.168-.122l-.086-.059c-.085-.058-.17-.117-.255-.172l-.017-.008c-.087-.055-.175-.11-.264-.16-.08-.046-.158-.088-.237-.13l-.089-.047c-.06-.029-.118-.058-.178-.088l-.078-.038c-.084-.037-.167-.071-.249-.105-.083-.033-.165-.063-.247-.092l-.078-.025c-.055-.017-.111-.034-.165-.051l-.096-.025c-.051-.017-.101-.03-.15-.038l-.096-.021c-.047-.013-.093-.021-.139-.029l-.11-.017c-.043-.004-.086-.009-.128-.017-.04-.004-.079-.008-.117-.008l-.113-.009c-.046 0-.093-.004-.138-.004-.063 0-.127 0-.188.004h-.019c-.062.004-.123.009-.183.017l-.053.004c-.066.013-.131.021-.195.034l-.05.012c-.052.013-.103.026-.153.038l-.074.021c-.04.013-.08.03-.119.042-.05.017-.097.038-.144.059l-.07.03c-.068.029-.136.067-.202.105l5.173-3.006c.066-.038.132-.075.201-.105l.07-.029c.757-.328 1.653-.257 2.421-.005.772.253 1.516.686 2.152 1.19l.057.046.11.089c2.327 1.925 3.998 4.956 4.219 7.982.075 1.038-.038 2.236-.61 3.132l-.008.012-.025.034c-.029.046-.061.092-.093.134l-.039.051c-.03.038-.061.076-.093.113l-.036.042c-.044.051-.089.097-.135.143l-.02.017c-.042.038-.083.076-.125.114l-.047.037-.111.085-.047.033c-.052.034-.106.072-.161.101l-5.172 3.006c.055-.03.109-.068.161-.101l.047-.034c.038-.029.075-.055.111-.084z" fill="#40363b"/><path d="m314.583 415.122c2.994 1.728 5.415 5.919 5.406 9.361-.011 3.443-2.446 4.83-5.441 3.098-2.995-1.727-5.415-5.918-5.405-9.361.01-3.438 2.446-4.83 5.44-3.098z" fill="#4e444a"/><path d="m314.397 417.539c1.849 1.068 3.362 3.569 3.526 5.738.009.134.015.265.014.395-.007 2.253-1.601 3.161-3.563 2.03-1.96-1.135-3.545-3.88-3.539-6.133.001-.13.006-.256.016-.374.176-1.975 1.699-2.724 3.546-1.656z" fill="#bbbdbf"/><path d="m314.394 418.653c1.344.778 2.446 2.594 2.564 4.17.007.097.011.193.011.29-.005 1.639-1.165 2.299-2.591 1.475s-2.579-2.82-2.575-4.46c.001-.092.005-.185.013-.273.126-1.437 1.234-1.98 2.578-1.202z" fill="#929497"/><path d="m311.816 419.855c.104-1.194.883-1.77 1.911-1.488-.797-.021-1.37.547-1.459 1.555-.008.089-.013.177-.013.274-.004 1.639 1.149 3.636 2.575 4.46.231.13.455.227.669.281-.339-.008-.72-.122-1.121-.353-1.426-.824-2.579-2.82-2.575-4.456.001-.096.005-.185.013-.273z" fill="#d1d2d3"/><path d="m313.415 421.936c-.074-.046-.149-.055-.205-.021-.114.063-.115.273-.001.471.056.096.13.172.204.214s.148.055.206.021c.113-.063.114-.273.001-.471-.056-.096-.131-.172-.205-.214z" fill="#3a3d3f"/><path d="m314.552 420.864c-.363-.21-.659-.042-.661.374-.001.42.293.929.657 1.139s.66.042.662-.378c.001-.416-.293-.925-.658-1.135z" fill="#3a3d3f"/><path d="m314.546 423.13c-.16-.097-.29-.021-.291.164s.129.407.29.5c.159.092.29.017.29-.164 0-.185-.129-.412-.289-.5z" fill="#3a3d3f"/><path d="m315.68 423.243c-.074-.046-.148-.054-.205-.021-.115.063-.115.273-.001.471.056.097.13.172.205.214.074.047.147.055.204.021.115-.063.115-.273.002-.47-.056-.097-.13-.173-.205-.215z" fill="#3a3d3f"/><path d="m313.422 419.33c-.074-.042-.148-.051-.205-.017-.113.063-.114.273-.001.471.056.096.13.172.205.214.074.042.148.055.205.021.114-.063.114-.277.001-.471-.056-.096-.131-.172-.205-.218z" fill="#3a3d3f"/><path d="m314.555 420.112c.159.092.29.021.29-.164.001-.185-.128-.408-.288-.501-.16-.092-.291-.021-.292.164 0 .185.129.408.29.501z" fill="#3a3d3f"/><path d="m315.685 421.305c.075.042.149.055.206.021.113-.063.114-.277.001-.47-.056-.097-.131-.173-.205-.215-.074-.046-.148-.054-.205-.021-.113.063-.114.273-.001.471.056.097.13.172.204.214z" fill="#3a3d3f"/><path d="m313.239 420.864c0-.185-.129-.408-.29-.5-.159-.093-.29-.021-.29.164-.001.185.129.407.289.5.16.092.291.021.291-.164z" fill="#3a3d3f"/><path d="m316.152 422.209c-.159-.092-.29-.017-.29.168-.001.185.129.408.289.5.16.093.29.017.291-.163 0-.185-.129-.408-.29-.505z" fill="#3a3d3f"/><path d="m351.16 432.583 19.611-11.11-45.582-26.452-19.611 11.11z" fill="#3c3f4b"/><path d="m348.23 432.697-.017-.009-.025-.012-.016-.004-.026-.013-.02-.004-.016-.004-.022-.009-.017-.004-.023-.008-.016-.005-.026-.004-.015-.004-.037-.008h-.008l-.032-.005h-.01l-.039-.004-.051-.004h-.015l-.036-.004h-.021l-.026.004h-.072l-.023.004-.024.004h-.023l-.026.005-.021.004-.027.004-.022.004-.028.004-.018.005-.034.008-.013.004-.048.013h-.01l-.037.012-.016.005-.032.012-.018.004-.032.013-.016.004-.041.017-.008.004-.048.017-.014.009-.034.012-.017.009-.034.016-.016.009-.049.025h-.002l-.049.025-.009.004-.049.03-10.674-6.209.049-.029.01-.004.008-.005.041-.021h.001l.043-.021.007-.004.015-.008.034-.017.017-.008.012-.005.023-.008.014-.008.047-.017.002-.004h.006l.041-.017.016-.005.019-.008.014-.004.017-.009.032-.008.016-.004.006-.004.031-.009.011-.004.045-.008h.002l.013-.005.035-.008.017-.004.02-.004h.009l.022-.005.026-.004.021-.004.015-.004h.01l.023-.004h.025l.024-.005h.098l.014-.004.006.004h.052l.05.005h.002l.037.004h.011l.03.004h.009l.035.008h.003l.014.005.025.004.017.004.024.008.016.005.022.008.017.004.01.004h.01l.024.013.018.004.025.013.016.008.027.013.013.004.04.021v.004l10.673 6.209-.039-.021-.013-.009z" fill="#96989b"/><path d="m346.806 432.882-10.674-6.209-1.296.748 10.674 6.209z" fill="#a3a7a9"/><path d="m332.728 431.015v-.016l.001-.021.001-.017.001-.021.002-.046.001-.013v-.004l.004-.055.001-.017.003-.029.002-.013.001-.021.005-.038.002-.021.001-.008.005-.038.002-.012.008-.055v-.008l.004-.013.007-.046.004-.021.007-.038.005-.025.008-.042.005-.017.001-.004.011-.055.001-.004.014-.055.001-.004.005-.021.017-.067.006-.021.005-.017.007-.025.011-.038.008-.021.002-.013.012-.038.004-.012.019-.059h.001l.006-.017.016-.046.007-.021.008-.021.007-.021.008-.021.016-.042.006-.017.002-.004.021-.055.006-.013.014-.038.003-.004.039-.088.002-.008.005-.013.037-.08.004-.008.003-.009.01-.017.019-.042.012-.025.011-.021.006-.012.017-.034.017-.029.016-.034.01-.017.004-.008.046-.084.006-.009.042-.075.007-.013.007-.013.021-.033.017-.03.02-.033.018-.026.022-.033.018-.03.021-.033.015-.021.003-.004.058-.085.012-.016.06-.084.001-.005.012-.012.032-.046.017-.021.028-.034.005-.009.02-.025.017-.021.027-.033.016-.021h.002l.041-.051h.001l.04-.046.003-.004.014-.013.03-.034.017-.021.027-.029.019-.021.027-.025.02-.021.012-.013.014-.017.02-.016.027-.03.02-.017.009-.008.019-.017.02-.021.028-.025.021-.021.004-.004.027-.021.017-.017.039-.034.01-.008h.001l.048-.042.015-.009.031-.025.004-.004.017-.013.033-.025.018-.017.019-.012.012-.009.019-.012.032-.026.019-.012.01-.009.024-.012.015-.013.05-.029.002-.004.047-.03.017-.008.022-.013.02-.013 10.674 6.209-.043.025-.016.009-.048.029-.002.004-.05.03-.015.012-.033.021-.019.017-.032.021-.019.013-.031.021-.019.017-.033.025-.017.012-.035.03-.014.008-.05.042-.009.009-.039.033-.018.017-.031.025-.02.021-.029.026-.02.021-.027.025-.021.021-.026.025-.02.021-.027.025-.02.021-.026.026-.019.021-.027.029-.018.021-.03.034-.013.017-.043.046h-.001l-.043.054-.015.017-.028.034-.018.021-.024.033-.029.034-.016.025-.034.042-.011.017-.061.084-.012.017-.058.084-.017.025-.021.034-.019.029-.021.034-.018.029-.021.03-.017.029-.021.034-.013.025-.043.076-.005.008-.047.084-.014.026-.017.033-.016.03-.016.033-.018.034-.011.025-.02.042-.009.021-.007.013-.037.084-.009.017-.037.088-.018.042-.005.013-.023.058-.007.017-.016.042-.008.021-.015.042-.007.021-.016.047-.006.016-.019.059-.004.013-.015.05-.007.021-.011.038-.008.025-.016.063-.011.042-.005.021-.015.059-.001.004-.013.059-.004.017-.008.042-.005.025-.008.038-.003.021-.008.046-.002.017-.01.059-.001.013-.006.046-.002.021-.005.038-.003.021-.003.046-.002.013-.003.059-.001.012-.003.046-.001.021v.038l-.001.017-.001.059.002.059v.012l.002.063.003.038.001.017.003.034.001.025.004.034.003.021.005.033.002.017.008.055.002.008.008.042.004.021.007.03.013.054.002.009.012.042.004.012.013.042.006.017.012.034.006.017.017.042.005.016.024.051.016.033.004.009.02.038.007.012.015.026.008.012.015.021.007.013.016.025.008.008.02.03.003.004.024.029.007.009.019.021.008.012.021.021.005.005.027.029.007.004.022.021.009.009.021.017.007.008.031.021.004.004.026.021.009.004.023.017.01.004.031.021-10.673-6.208-.032-.021-.009-.004-.023-.017-.01-.004-.025-.021-.005-.005-.03-.021-.008-.008-.021-.017-.009-.008-.021-.021-.007-.004-.027-.03-.006-.004-.02-.021-.009-.013-.018-.021-.007-.008-.025-.03-.001-.004-.022-.029-.006-.009-.017-.025-.007-.012-.005-.005-.01-.016-.009-.013-.015-.03-.006-.008-.021-.042-.003-.004-.015-.03-.001-.004-.024-.05-.006-.017-.016-.042-.004-.008-.003-.009-.012-.034-.006-.016-.012-.042-.003-.009-.001-.004-.013-.042-.001-.008-.013-.055h-.001l-.006-.029-.004-.021-.009-.043-.001-.008-.009-.055-.002-.016-.005-.03v-.004l-.001-.021-.005-.034-.002-.025-.002-.017-.001-.017-.001-.016-.003-.038v-.021l-.001-.009-.001-.033-.001-.013v-.054-.005z" fill="#d1d2d3"/><path d="m345.51 433.63c-1.163.673-2.113 2.316-2.109 3.653s.959 1.883 2.123 1.211l1.295-.749c1.164-.672 2.113-2.316 2.109-3.653-.003-1.336-.959-1.883-2.122-1.21z" fill="#949698"/><path d="m305.555 414.004.023-7.873 45.582 26.452v7.857l-2.63-1.526v-4.687l-40.425-23.38v4.632z" fill="#32343f"/><path d="m371.268 396.227-21.201 12.338-45.111-26.172 21.13-12.293z" fill="#feffff"/><path d="m350.067 408.565v23.577l21.201-12.333v-23.582z" fill="#d3d3d3"/><path d="m304.956 382.393 45.111 26.172v23.577l-45.111-26.171z" fill="#e0e4e4"/><path d="m362.267 452.87.048-.038c.042-.034.084-.072.124-.11l.021-.021c.045-.042.091-.092.134-.138l.036-.042c.033-.038.064-.076.094-.114l.039-.054c.032-.043.063-.085.093-.131l.025-.038c.04-.058.078-.122.114-.189s.071-.134.103-.206l.016-.033c.025-.055.049-.114.073-.173l.02-.05.039-.105c.019-.059.039-.114.057-.173.01-.037.022-.075.033-.113.013-.051.026-.097.038-.147.01-.046.02-.089.03-.131.009-.042.017-.088.026-.13.009-.05.017-.097.025-.147.006-.038.012-.08.018-.118.007-.054.013-.109.019-.164l.012-.113c.006-.067.011-.13.014-.198l.005-.084c.005-.096.007-.197.007-.298.001-.097-.001-.194-.004-.29l-.005-.097c-.003-.071-.008-.139-.013-.21l-.008-.105c-.007-.072-.015-.143-.022-.219l-.01-.084c-.013-.105-.027-.206-.043-.307l-.007-.042c-.014-.088-.03-.176-.047-.269l-.023-.109c-.014-.067-.029-.139-.044-.206-.01-.038-.018-.08-.028-.118-.016-.067-.033-.134-.05-.201-.01-.038-.021-.08-.031-.122-.02-.072-.04-.143-.062-.215l-.029-.101c-.032-.105-.065-.206-.099-.311l-.009-.025c-.032-.097-.066-.193-.101-.286l-.036-.096c-.027-.072-.055-.143-.083-.215l-.042-.105c-.031-.076-.063-.151-.094-.227l-.035-.076c-.045-.1-.09-.201-.137-.302l-.036-.076c-.037-.076-.075-.155-.112-.231-.028-.055-.057-.109-.085-.164-.027-.05-.054-.101-.081-.156-.076-.138-.154-.277-.234-.416-.028-.046-.056-.092-.083-.138-.034-.059-.069-.114-.103-.169-.031-.05-.062-.1-.094-.151-.035-.055-.071-.109-.106-.164l-.072-.105c-.099-.147-.202-.294-.308-.437l-.003-.004c-.074-.101-.15-.202-.227-.299-.06-.08-.121-.151-.182-.227l-.036-.042c-.073-.088-.147-.176-.222-.26l-.065-.072c-.053-.059-.107-.122-.161-.176l-.094-.101c-.046-.046-.093-.097-.14-.143l-.103-.101c-.046-.046-.092-.093-.139-.135l-.11-.105c-.046-.042-.093-.084-.138-.122l-.112-.1c-.047-.038-.094-.08-.142-.118l-.11-.093c-.05-.037-.101-.075-.151-.117l-.103-.076c-.055-.042-.112-.084-.168-.122l-.086-.063c-.085-.059-.171-.113-.255-.168l-.017-.013c-.088-.054-.176-.109-.264-.159-.08-.047-.159-.089-.237-.131l-.089-.046c-.06-.029-.119-.059-.178-.084l-.078-.038c-.084-.038-.167-.076-.249-.109-.083-.03-.166-.063-.247-.088l-.079-.026c-.054-.021-.11-.037-.165-.054l-.096-.026c-.05-.012-.1-.025-.15-.037l-.095-.021c-.047-.009-.093-.017-.14-.026l-.109-.016c-.043-.009-.086-.013-.129-.017-.039-.004-.078-.009-.117-.013l-.113-.004c-.045-.004-.092-.004-.137-.004-.064-.004-.127 0-.189 0l-.019.004c-.061.004-.122.008-.183.013l-.052.008c-.066.008-.131.021-.196.034l-.05.008c-.052.013-.103.025-.153.038l-.073.025c-.041.013-.08.025-.12.038-.049.021-.096.038-.144.059l-.069.029c-.069.034-.137.067-.203.105l4.006-2.341c.066-.038.133-.072.202-.101l.069-.029c.757-.328 1.654-.261 2.421-.009.772.252 1.516.69 2.152 1.194l.058.046.11.089c2.327 1.925 3.998 4.951 4.218 7.982.076 1.038-.039 2.232-.61 3.132l-.008.008-.024.038c-.031.046-.062.088-.094.134l-.038.051c-.031.038-.062.075-.094.113l-.036.042c-.044.051-.089.097-.136.143l-.02.017c-.04.038-.082.076-.124.114l-.047.037c-.036.03-.073.055-.111.084l-.047.034c-.052.034-.106.072-.16.101l-4.005 2.341c.055-.033.108-.067.161-.105l.046-.029.111-.088z" fill="#40363b"/><path d="m358.126 440.251c2.994 1.727 5.415 5.922 5.404 9.361-.009 3.442-2.445 4.83-5.44 3.102-2.994-1.728-5.414-5.923-5.404-9.361.008-3.443 2.445-4.83 5.44-3.102z" fill="#4e444a"/><path d="m357.94 442.672c1.849 1.067 3.362 3.564 3.525 5.733.01.135.015.265.014.396-.006 2.253-1.601 3.161-3.562 2.03s-3.546-3.876-3.54-6.129c0-.13.007-.256.017-.378.175-1.976 1.698-2.72 3.546-1.652z" fill="#bbbdbf"/><path d="m357.937 443.782c1.344.777 2.446 2.597 2.564 4.174.006.096.01.193.01.285-.004 1.64-1.165 2.3-2.591 1.476s-2.579-2.816-2.574-4.456c.001-.097.005-.185.012-.273.127-1.438 1.235-1.98 2.579-1.206z" fill="#929497"/><path d="m355.358 444.984c.105-1.19.884-1.766 1.912-1.488-.798-.017-1.37.546-1.46 1.555-.008.088-.012.181-.012.273-.004 1.64 1.148 3.636 2.574 4.46.232.135.455.227.669.286-.339-.008-.719-.122-1.121-.353-1.426-.824-2.579-2.821-2.574-4.46.001-.093.005-.185.012-.273z" fill="#d1d2d3"/><path d="m356.958 447.064c-.075-.042-.148-.054-.206-.021-.114.068-.114.278-.001.471.057.101.131.177.204.219.075.042.149.05.206.021.114-.067.114-.278.001-.471-.056-.101-.13-.176-.204-.219z" fill="#3a3d3f"/><path d="m358.095 445.993c-.364-.211-.66-.042-.661.378-.001.416.292.929.657 1.139.364.21.66.038.662-.378 0-.421-.294-.929-.658-1.139z" fill="#3a3d3f"/><path d="m358.089 448.258c-.16-.092-.291-.017-.291.164-.001.185.129.412.289.5.16.093.291.021.291-.164 0-.184-.13-.407-.289-.5z" fill="#3a3d3f"/><path d="m359.223 448.372c-.075-.042-.149-.055-.206-.021-.113.067-.114.277-.001.471.056.1.13.176.205.218.074.042.148.051.205.021.113-.067.114-.277.002-.471-.057-.101-.131-.176-.205-.218z" fill="#3a3d3f"/><path d="m356.965 444.463c-.074-.043-.149-.055-.206-.022-.113.064-.114.278-.001.471.057.097.131.173.205.215.074.046.148.054.205.025.115-.067.115-.278.002-.475-.057-.097-.131-.172-.205-.214z" fill="#3a3d3f"/><path d="m358.098 445.244c.159.093.29.017.29-.168 0-.181-.128-.408-.289-.5s-.29-.017-.291.168c0 .185.129.408.29.5z" fill="#3a3d3f"/><path d="m359.228 446.438c.075.042.149.051.205.021.114-.067.115-.277.002-.475-.057-.096-.131-.172-.205-.214s-.148-.055-.206-.021c-.113.063-.113.277-.001.471.057.1.131.172.205.218z" fill="#3a3d3f"/><path d="m356.781 445.993c.001-.185-.129-.408-.289-.501-.159-.092-.29-.016-.291.169 0 .18.129.407.29.5.159.092.29.017.29-.168z" fill="#3a3d3f"/><path d="m359.695 447.342c-.159-.093-.29-.017-.291.164 0 .185.13.412.29.504.16.093.29.017.291-.168 0-.185-.129-.408-.29-.5z" fill="#3a3d3f"/><path d="m367.036 449.637 19.679-11.131.034-11.9-19.679 11.131z" fill="#526aa7"/><path d="m367.07 437.737 19.679-11.131-2.675-11.564-19.68 11.131z" fill="#70575d"/><path d="m364.394 426.173 19.68-11.131-13.194-7.617-19.68 11.131z" fill="#577abc"/><path d="m365.279 426.564 18.273-10.336 2.311 9.991-18.272 10.333zm-.885-.391 2.676 11.564 19.679-11.131-2.675-11.564z" fill="#577abc"/><path d="m383.239 430.822v7.642l-12.694 7.339v-7.642z" fill="#4f565b"/><path d="m367.997 447.506v2.677l19.577-11.252v-2.682z" fill="#d1d2d3"/><path d="m367.997 447.506v2.677l-.961-.538v-2.677z" fill="#bbbdbf"/><path d="m387.572 436.249-19.575 11.257-.961-.538 19.571-11.261z" fill="#e7e7e8"/></g><path d="m367.07 444.227 3.143-1.812v1.892l-3.143 1.795z" fill="#f3f3f5"/><path d="m383.605 434.677 3.144-1.812v1.896l-3.144 1.791z" fill="#f3f3f5"/><path d="m351.2 418.556 13.194 7.617 2.676 11.564-.034 11.9-2.823-1.635c-.72-3.38-3.078-6.911-5.883-8.529-2.798-1.614-5.163-.824-5.906 1.698l-1.264-.731v-7.857z" fill="#48629a" fill-rule="nonzero"/><path d="m356.428 422.55c-.138-.08-.252-.017-.252.147l-.02 6.893c0 .16.112.354.251.433l8.755 5.057c.174.101.296-.029.239-.252l-1.553-7.797c-.035-.139-.13-.274-.237-.333z" fill="#70575d" fill-rule="nonzero"/><path d="m368.479 448.178v1.228l2.382-1.371v-1.227z" fill="#f69220" fill-rule="nonzero"/><path d="m384.811 438.821v1.228l2.382-1.371v-1.227z" fill="#f69220" fill-rule="nonzero"/><path d="m323.364 419.67v4.443l8.287 4.7v-4.351z" fill="#bbbdbf" fill-rule="nonzero"/><path d="m331.651 428.813 1.565-.853v-2.59l-1.565-.908z" fill="#97999c" fill-rule="nonzero"/><path d="m365.279 426.564 18.273-10.336 2.311 9.991z" fill="#8d787e" fill-rule="nonzero"/><path d="m326.029 413.155-2.323-1.333v-15.435l2.323 1.337z" fill="#577abc" fill-rule="nonzero"/><path d="m315.786 404.63 2.799 1.614v-12.816l2.322 1.336v15.436l-2.322-1.337v-.004l-5.122-2.96v-15.431l2.323 1.333z" fill="#577abc" fill-rule="nonzero"/><path d="m310.665 388.846v15.435l-2.323-1.337v-15.435z" fill="#577abc" fill-rule="nonzero"/><path d="m326.26 479.268-61.017-35.554 26.782-15.801 35.667 20.782-2.154 1.219 2.676 11.564 10.866-6.145 13.963 8.138z" fill="#d1b89c" fill-rule="nonzero"/><path d="m309.674 459.864-39.215-22.32 2.114-1.694 37.101 22.114z" fill="#240d21" fill-rule="nonzero"/><path d="m269.25 439.221 3.808-2.43-3.808-2.203z" fill="#240d21" fill-rule="nonzero"/><path d="m279.869 451.482.048-.037c.042-.038.084-.076.124-.114l.02-.017c.046-.046.091-.092.135-.143l.037-.042c.032-.038.063-.075.093-.113l.039-.051c.032-.046.063-.088.094-.134l.024-.038c.039-.059.077-.122.114-.189s.071-.135.103-.206l.016-.034c.025-.054.049-.113.073-.168l.021-.055.038-.105c.019-.054.038-.113.057-.172.011-.038.022-.076.032-.113.014-.047.027-.097.039-.148.01-.042.02-.088.03-.13.008-.042.017-.084.025-.13.01-.046.018-.097.026-.147.007-.038.012-.08.018-.118.007-.055.014-.109.019-.164l.012-.113c.006-.064.011-.131.014-.198l.005-.08c.005-.101.007-.197.008-.298 0-.097-.003-.194-.006-.295l-.004-.096c-.004-.072-.008-.139-.013-.206l-.009-.105c-.006-.076-.013-.147-.022-.219l-.009-.088c-.013-.101-.027-.206-.043-.307l-.007-.042c-.014-.088-.031-.177-.048-.269l-.022-.105c-.014-.072-.029-.139-.045-.21-.008-.038-.018-.08-.027-.118-.016-.067-.033-.135-.05-.202-.01-.038-.021-.08-.032-.118-.019-.071-.039-.142-.061-.214l-.029-.101c-.032-.105-.065-.21-.1-.315l-.008-.021c-.032-.097-.066-.193-.101-.29l-.035-.093c-.028-.071-.055-.147-.084-.218l-.042-.105c-.031-.076-.063-.147-.095-.223l-.034-.08c-.044-.101-.09-.202-.137-.303l-.036-.075c-.036-.076-.075-.156-.113-.231-.027-.055-.055-.11-.084-.164-.027-.051-.053-.101-.081-.152-.076-.143-.154-.281-.234-.42-.028-.046-.056-.093-.084-.139-.034-.059-.067-.113-.102-.168-.03-.05-.063-.101-.094-.147-.036-.059-.071-.114-.107-.168l-.071-.101c-.1-.151-.201-.298-.307-.441l-.004-.005c-.075-.101-.151-.201-.227-.298-.06-.076-.121-.151-.182-.227l-.036-.042c-.073-.088-.147-.177-.222-.261l-.065-.071c-.053-.059-.107-.118-.161-.177l-.094-.096c-.046-.051-.093-.101-.14-.148l-.103-.1c-.046-.047-.092-.093-.138-.135l-.111-.101c-.047-.042-.092-.084-.138-.126-.037-.034-.074-.067-.112-.101-.047-.038-.095-.08-.143-.117l-.109-.089c-.051-.042-.1-.08-.151-.117l-.103-.08c-.056-.042-.112-.08-.168-.122l-.086-.063c-.085-.055-.17-.114-.256-.168l-.016-.009c-.087-.059-.175-.109-.264-.16-.08-.046-.159-.088-.238-.13l-.088-.046c-.06-.034-.119-.059-.178-.088l-.078-.038c-.084-.038-.167-.072-.25-.105-.083-.034-.164-.063-.246-.093l-.079-.025c-.054-.017-.11-.038-.165-.05l-.095-.03c-.051-.012-.1-.025-.151-.034l-.095-.025c-.047-.008-.094-.017-.139-.025l-.111-.017c-.043-.008-.085-.012-.128-.017-.039-.004-.077-.008-.117-.012l-.112-.004c-.046 0-.093-.005-.139-.005-.063 0-.126 0-.187.005h-.02c-.062.004-.122.008-.182.016l-.053.005c-.066.008-.131.021-.195.033l-.051.013c-.051.008-.103.021-.153.038l-.073.021c-.041.012-.081.025-.121.042-.048.017-.095.038-.142.054l-.069.034c-.07.029-.137.067-.204.105l5.174-3.01c.065-.037.132-.071.201-.105l.07-.025c.757-.332 1.653-.261 2.421-.008.771.252 1.516.689 2.152 1.193l.056.047.111.088c2.327 1.925 3.997 4.952 4.219 7.982.075 1.039-.039 2.233-.611 3.132l-.007.008-.025.038c-.03.047-.061.089-.093.135l-.039.05c-.03.038-.061.076-.093.114l-.037.042c-.044.05-.088.096-.135.143l-.021.017c-.039.037-.081.075-.124.113l-.046.038c-.037.029-.074.055-.112.084l-.046.034c-.053.033-.106.067-.161.1l-5.172 3.006c.055-.029.108-.067.161-.101l.047-.034z" fill="#40363b" fill-rule="nonzero"/><path d="m275.728 438.863c2.995 1.728 5.415 5.919 5.405 9.362-.01 3.438-2.446 4.825-5.441 3.098-2.994-1.728-5.414-5.919-5.405-9.362.011-3.438 2.446-4.829 5.441-3.098z" fill="#4e444a" fill-rule="nonzero"/><path d="m275.542 441.28c1.849 1.068 3.363 3.565 3.525 5.738.01.131.014.265.014.391-.006 2.257-1.6 3.165-3.562 2.03-1.961-1.13-3.546-3.875-3.539-6.128 0-.131.006-.257.017-.374.174-1.976 1.697-2.724 3.545-1.657z" fill="#bbbdbf" fill-rule="nonzero"/><path d="m275.539 442.394c1.345.774 2.445 2.594 2.563 4.17.007.097.012.194.011.286-.004 1.639-1.165 2.304-2.59 1.48-1.427-.824-2.58-2.821-2.575-4.46 0-.093.004-.185.012-.273.127-1.438 1.235-1.98 2.579-1.203z" fill="#929497" fill-rule="nonzero"/><path d="m272.96 443.592c.105-1.189.884-1.765 1.912-1.483-.798-.021-1.371.546-1.46 1.555-.008.088-.011.176-.011.273-.005 1.639 1.147 3.632 2.573 4.456.232.134.456.227.669.286-.339-.009-.719-.122-1.12-.353-1.427-.824-2.58-2.821-2.575-4.46 0-.093.004-.185.012-.274z" fill="#d1d2d3" fill-rule="nonzero"/><path d="m274.56 445.673c-.074-.042-.149-.05-.206-.021-.114.067-.114.278-.001.475.056.097.131.172.205.214.074.043.148.055.205.021.114-.067.115-.277.002-.47-.057-.097-.131-.173-.205-.219z" fill="#3a3d3f" fill-rule="nonzero"/><path d="m275.697 444.601c-.364-.21-.66-.038-.662.379 0 .42.294.929.657 1.139.365.21.661.042.662-.379.002-.416-.293-.929-.657-1.139z" fill="#3a3d3f" fill-rule="nonzero"/><path d="m275.691 446.867c-.16-.093-.291-.017-.291.168-.001.181.128.408.289.5.16.093.29.017.291-.168 0-.181-.129-.408-.289-.5z" fill="#3a3d3f" fill-rule="nonzero"/><path d="m276.825 446.985c-.075-.047-.149-.055-.205-.026-.115.068-.115.278-.002.475.057.097.131.173.205.215s.148.054.206.021c.113-.063.113-.278.001-.471-.057-.097-.131-.172-.205-.214z" fill="#3a3d3f" fill-rule="nonzero"/><path d="m274.567 443.071c-.074-.042-.148-.05-.205-.021-.114.067-.115.278-.001.471.056.101.13.176.204.218.075.043.149.055.206.022.113-.068.114-.278.001-.471-.056-.101-.131-.177-.205-.219z" fill="#3a3d3f" fill-rule="nonzero"/><path d="m275.699 443.853c.16.092.291.017.291-.164.001-.185-.128-.408-.289-.5-.16-.093-.291-.021-.291.164-.001.185.129.408.289.5z" fill="#3a3d3f" fill-rule="nonzero"/><path d="m276.83 445.047c.074.042.149.054.205.021.115-.063.115-.278.002-.471-.057-.101-.13-.172-.205-.219-.074-.042-.148-.05-.205-.021-.115.068-.115.278-.001.471.056.101.13.177.204.219z" fill="#3a3d3f" fill-rule="nonzero"/><path d="m274.384 444.605c.001-.185-.129-.412-.29-.504-.16-.092-.29-.017-.291.168 0 .185.129.408.289.5.16.093.291.017.292-.164z" fill="#3a3d3f" fill-rule="nonzero"/><path d="m277.297 445.951c-.159-.093-.29-.017-.291.168 0 .185.129.407.29.5.16.092.29.017.291-.164 0-.185-.129-.412-.29-.504z" fill="#3a3d3f" fill-rule="nonzero"/><path d="m312.305 456.321 19.611-11.106-45.583-26.453-19.611 11.106z" fill="#3c3f4b" fill-rule="nonzero"/><path d="m309.374 456.438-.015-.008-.026-.013-.017-.004-.025-.013-.02-.004-.016-.008-.023-.004-.017-.009-.023-.004-.016-.004-.025-.004-.016-.005-.036-.008h-.009l-.031-.004h-.011l-.039-.009h-.065l-.037-.004h-.02l-.027.004h-.072l-.022.005h-.025l-.023.004-.026.004-.021.004-.026.004-.022.005-.029.004-.052.012h-.012l-.048.013-.011.004-.037.013-.015.004-.033.008-.017.009-.033.013-.015.004-.041.017h-.007l-.049.021-.014.004-.035.017-.016.008-.035.017-.015.008-.049.025h-.002l-.049.026-.009.004-.05.029-10.673-6.208.049-.03.009-.004.008-.004.042-.021v-.004l.044-.021h.006l.016-.009.034-.017.017-.008.012-.004.023-.013.014-.004.046-.021h.002l.008-.004.04-.013.016-.008.019-.004.014-.005.017-.008.032-.008.016-.005.006-.004.031-.008.011-.005.045-.012h.015l.052-.013.019-.004h.01l.022-.004.025-.009h.022l.013-.004h.013l.022-.004h.025l.023-.004h.023l.027-.004h.106l.015.004h.05l.038.008h.011l.031.004h.009l.034.009h.003l.015.004.026.004.016.004.023.009.017.004.022.004.016.009h.011l.009.004.026.013.017.004.025.012.016.005.027.016.013.005.039.021 10.674 6.208-.039-.021-.014-.004z" fill="#96989b" fill-rule="nonzero"/><path d="m307.95 456.623-10.673-6.208-1.296.748 10.674 6.208z" fill="#a3a7a9" fill-rule="nonzero"/><path d="m293.873 454.757v-.017l.001-.021.001-.021v-.017l.002-.046.001-.013v-.004l.005-.054v-.017l.003-.03.002-.012.002-.021.005-.042.002-.017v-.013l.006-.038.001-.012.009-.055h.001l.002-.021.008-.042.004-.021.007-.042.005-.021.009-.042.003-.021.002-.004.011-.051.001-.004.013-.055.002-.004.004-.025.012-.038.006-.025.006-.021.005-.017.006-.025.012-.038.006-.025.004-.009.012-.037.003-.013.019-.059.002-.004.005-.013.016-.046.008-.021.007-.025.007-.017.008-.021.017-.046.006-.013.001-.004.023-.055.005-.012.014-.038.003-.004.038-.093.003-.004.004-.013.038-.079.004-.009.002-.004.011-.025.019-.038.012-.025.01-.021.007-.013.016-.034.017-.029.016-.034.01-.016.005-.009.046-.084.005-.013.043-.071.007-.013.007-.012.02-.034.017-.029.021-.034.019-.029.02-.034.018-.025.022-.034.014-.021.003-.004.058-.084.012-.017.061-.088h.001l.011-.013.032-.046.017-.021.029-.038.005-.004.02-.025.016-.021.029-.034.015-.021h.003l.04-.05.041-.047.001-.004.015-.012.03-.034.017-.021.019-.021.009-.009.019-.021.027-.025.019-.021.013-.017.014-.012.02-.021.027-.025.02-.017.008-.009.019-.021.021-.017.028-.025.02-.021.004-.004.027-.025.017-.013.04-.033.01-.009.049-.042.014-.012.031-.021.004-.005.018-.012.032-.026.019-.016.019-.013.011-.008.02-.017.031-.021.02-.013.009-.008.024-.013.016-.012.05-.034h.002l.048-.029.015-.009.022-.017.021-.008 10.674 6.208-.043.026-.016.008-.048.03h-.002l-.05.033-.015.013-.034.021-.02.012-.031.021-.018.017-.031.021-.02.017-.032.025-.017.013-.035.029-.015.009-.049.042-.01.008-.039.034-.017.017-.031.025-.021.021-.027.025-.021.017-.028.025-.02.021-.026.03-.021.016-.026.03-.02.021-.026.025-.02.021-.027.029-.017.022-.03.033-.015.013-.041.05h-.002l-.043.051-.015.021-.028.033-.016.021-.025.03-.028.038-.018.021-.033.046-.012.017-.06.084-.012.016-.058.085-.017.025-.022.033-.018.03-.022.029-.018.03-.058.096-.014.026-.042.075-.006.009-.045.084-.015.025-.017.034-.016.029-.017.034-.017.033-.012.025-.019.038-.01.021-.006.017-.038.08-.007.021-.039.084-.017.046-.005.013-.024.059-.006.017-.017.042-.007.021-.015.042-.007.021-.017.046-.004.013-.02.063-.005.012-.014.046-.008.026-.011.038-.007.025-.011.038-.006.025-.011.042-.005.017-.015.063-.001.004-.012.055-.004.021-.009.042-.004.025-.008.038-.004.021-.007.046-.003.013-.009.063-.001.008-.007.05-.002.017-.005.042-.002.021-.003.042-.002.017-.005.059v.013l-.002.046-.001.017-.001.042v.016l-.001.059.001.059v.013l.002.042v.021l.003.033.002.022.002.033.003.025.003.034.002.017.005.038.002.016.009.051.001.012.009.043.003.016.008.034.013.055.002.004.012.046.004.013.013.042.006.017.011.033.007.017.017.042.005.013.024.054.016.034.003.004.021.042.006.009.015.025.009.017.015.021.007.012.016.025.007.009.021.029.002.004.025.03.007.008.018.021.008.009.021.025.006.004.027.03.007.004.021.021.009.008.021.017.009.008.029.021.005.005.025.016.01.009.022.017.01.004.032.021-10.674-6.209-.032-.021-.009-.004-.023-.017-.009-.008-.026-.017-.005-.004-.029-.021-.008-.009-.021-.016-.01-.009-.02-.021-.007-.004-.027-.029-.007-.005-.02-.025-.008-.008-.018-.021-.008-.009-.024-.029-.002-.004-.021-.03-.008-.012-.015-.021-.008-.013-.003-.004-.011-.017-.009-.013-.015-.029-.007-.008-.021-.043-.003-.004-.015-.033-.024-.055-.005-.013-.018-.042-.003-.008-.003-.008-.012-.034-.006-.017-.012-.042-.004-.013h-.001l-.012-.042-.001-.008-.014-.055-.007-.033-.004-.017-.008-.046-.001-.009-.01-.05-.001-.017-.005-.034v-.004l-.003-.017-.004-.037-.001-.021-.002-.017-.001-.017-.002-.021-.002-.034-.001-.021v-.008l-.001-.034-.001-.012v-.055-.004-.059z" fill="#d1d2d3" fill-rule="nonzero"/><path d="m306.655 457.371c-1.164.673-2.113 2.317-2.109 3.653.003 1.337.959 1.879 2.122 1.207l1.296-.748c1.163-.669 2.113-2.312 2.108-3.653-.003-1.337-.958-1.879-2.122-1.207z" fill="#949698" fill-rule="nonzero"/><path d="m266.7 437.745.022-7.877 45.583 26.453v7.856l-2.631-1.522v-4.691l-40.424-23.376v4.633z" fill="#32343f" fill-rule="nonzero"/><path d="m332.412 419.969-21.2 12.337-45.111-26.171 21.13-12.295z" fill="#feffff" fill-rule="nonzero"/><path d="m311.212 432.306v23.577l21.2-12.337v-23.577z" fill="#d3d3d3" fill-rule="nonzero"/><path d="m266.101 406.135 45.111 26.171v23.577l-45.111-26.171z" fill="#e0e4e4" fill-rule="nonzero"/><path d="m323.412 476.611.048-.038c.041-.034.083-.071.124-.109l.019-.021c.047-.042.092-.093.136-.139l.036-.042c.032-.038.064-.076.093-.118l.04-.05c.032-.042.062-.088.093-.13l.025-.038c.039-.063.077-.126.114-.189.036-.068.071-.135.103-.206l.015-.034c.026-.055.05-.113.074-.172l.021-.051.037-.105c.019-.059.039-.113.057-.172.012-.038.022-.076.033-.114.013-.05.026-.101.039-.151.01-.042.02-.084.029-.126.009-.046.018-.088.027-.13.008-.051.017-.097.025-.148.006-.042.012-.079.017-.117.008-.055.014-.11.02-.168.004-.034.008-.072.012-.11.005-.067.01-.13.013-.197l.006-.084c.004-.097.007-.198.007-.299.001-.096-.001-.193-.005-.29l-.005-.101c-.003-.067-.007-.134-.012-.206l-.009-.105c-.006-.071-.014-.143-.022-.218l-.01-.089c-.012-.1-.026-.201-.043-.306l-.006-.038c-.015-.089-.031-.181-.049-.269l-.021-.11c-.015-.067-.029-.138-.045-.206-.008-.042-.018-.079-.027-.117-.016-.068-.033-.135-.05-.202-.011-.042-.02-.08-.032-.122-.019-.071-.039-.143-.061-.214l-.029-.101c-.032-.105-.065-.206-.1-.311l-.008-.025c-.033-.097-.067-.194-.102-.291l-.034-.092c-.028-.071-.056-.143-.085-.219l-.041-.1c-.031-.076-.063-.152-.095-.227l-.034-.08c-.044-.101-.09-.198-.137-.299l-.036-.075c-.038-.08-.075-.156-.113-.232-.027-.054-.056-.109-.084-.164-.027-.05-.054-.105-.082-.155-.075-.139-.153-.278-.234-.416-.027-.046-.055-.093-.083-.143-.034-.055-.068-.109-.102-.168-.032-.047-.063-.097-.095-.147-.035-.055-.07-.11-.107-.164l-.07-.105c-.101-.152-.202-.295-.307-.438l-.005-.004c-.074-.101-.15-.202-.227-.302-.06-.076-.12-.148-.182-.223l-.035-.047c-.073-.088-.147-.172-.222-.256l-.066-.076c-.053-.058-.107-.117-.161-.176l-.093-.097c-.046-.046-.094-.096-.141-.147l-.103-.101c-.045-.042-.091-.088-.138-.13l-.11-.105c-.047-.042-.092-.084-.139-.126l-.111-.097c-.048-.038-.095-.08-.143-.118l-.11-.092c-.05-.038-.1-.08-.151-.118l-.102-.076c-.056-.042-.112-.084-.169-.121l-.086-.063c-.084-.059-.169-.114-.255-.169l-.016-.012c-.087-.055-.176-.11-.265-.16-.079-.046-.158-.088-.237-.13l-.089-.047c-.059-.029-.119-.058-.177-.088l-.079-.033c-.083-.038-.166-.076-.249-.11-.083-.033-.166-.063-.247-.092l-.078-.025c-.055-.017-.11-.034-.165-.051l-.096-.025c-.051-.013-.101-.025-.151-.038l-.094-.021c-.047-.008-.094-.017-.139-.025l-.111-.021c-.043-.004-.086-.009-.129-.013-.038-.004-.078-.008-.117-.012l-.112-.009c-.046 0-.092 0-.138-.004-.063 0-.126 0-.188.004h-.02c-.061.004-.121.013-.181.017l-.053.008c-.067.009-.132.017-.196.03l-.05.012c-.051.013-.103.026-.154.038l-.072.026c-.041.012-.081.025-.121.037-.048.021-.096.038-.143.059l-.069.03c-.07.033-.137.067-.203.105l4.006-2.342c.065-.037.132-.071.201-.105l.07-.029c.757-.328 1.653-.257 2.421-.004.772.252 1.515.689 2.152 1.193l.057.042.109.093c2.328 1.925 3.999 4.952 4.22 7.982.076 1.039-.038 2.232-.611 3.128l-.007.012-.025.038c-.03.047-.061.089-.093.131l-.039.054c-.03.038-.061.076-.093.114l-.037.042c-.043.05-.089.096-.135.143l-.02.016c-.04.038-.082.076-.124.11l-.047.042-.111.084-.047.034c-.053.033-.106.067-.161.1l-4.004 2.338c.055-.03.108-.064.16-.101l.047-.034z" fill="#40363b" fill-rule="nonzero"/><path d="m319.27 463.992c2.995 1.728 5.416 5.923 5.405 9.361-.009 3.443-2.445 4.83-5.44 3.102-2.995-1.731-5.414-5.922-5.405-9.361.01-3.442 2.446-4.83 5.44-3.102z" fill="#4e444a" fill-rule="nonzero"/><path d="m319.085 466.409c1.848 1.068 3.361 3.569 3.524 5.738.011.134.016.265.016.395-.008 2.253-1.602 3.161-3.563 2.03-1.961-1.13-3.546-3.875-3.54-6.133.001-.126.006-.252.017-.374.175-1.975 1.698-2.719 3.546-1.656z" fill="#bbbdbf" fill-rule="nonzero"/><path d="m319.082 467.523c1.344.778 2.445 2.594 2.563 4.174.008.097.011.193.011.286-.005 1.639-1.165 2.299-2.591 1.475-1.427-.824-2.579-2.82-2.574-4.46 0-.092.004-.185.012-.269.127-1.437 1.234-1.979 2.579-1.206z" fill="#929497" fill-rule="nonzero"/><path d="m316.503 468.725c.105-1.189.884-1.765 1.912-1.488-.799-.021-1.371.547-1.46 1.555-.008.089-.011.181-.012.274-.005 1.639 1.148 3.636 2.574 4.46.232.134.456.227.669.285-.339-.008-.72-.121-1.121-.353-1.427-.828-2.579-2.82-2.574-4.46 0-.096.004-.185.012-.273z" fill="#d1d2d3" fill-rule="nonzero"/><path d="m318.102 470.806c-.074-.042-.148-.055-.206-.021-.113.063-.113.277 0 .471.056.096.13.172.204.218.075.042.149.051.206.017.114-.063.114-.273.002-.471-.057-.096-.132-.172-.206-.214z" fill="#3a3d3f" fill-rule="nonzero"/><path d="m319.24 469.734c-.365-.21-.66-.042-.662.378-.001.416.294.925.657 1.135.365.21.661.042.661-.374.002-.42-.292-.929-.656-1.139z" fill="#3a3d3f" fill-rule="nonzero"/><path d="m319.234 472c-.161-.093-.291-.021-.292.164 0 .185.129.407.289.5.161.092.291.021.291-.164.001-.185-.128-.408-.288-.5z" fill="#3a3d3f" fill-rule="nonzero"/><path d="m320.367 472.113c-.074-.042-.149-.054-.204-.021-.115.067-.116.278-.002.471.056.097.131.172.204.219.075.042.149.05.206.021.113-.068.114-.278.001-.475-.056-.097-.13-.173-.205-.215z" fill="#3a3d3f" fill-rule="nonzero"/><path d="m318.11 468.204c-.074-.046-.148-.055-.206-.021-.114.063-.114.273-.001.471.057.096.13.172.204.214.075.046.149.055.206.021.114-.063.114-.273.002-.471-.057-.096-.131-.172-.205-.214z" fill="#3a3d3f" fill-rule="nonzero"/><path d="m319.242 468.986c.16.092.29.017.291-.168s-.129-.408-.289-.501c-.16-.092-.291-.016-.292.169 0 .18.13.407.29.5z" fill="#3a3d3f" fill-rule="nonzero"/><path d="m320.373 470.175c.074.047.148.055.205.021.114-.063.114-.273.002-.47-.057-.097-.131-.173-.205-.215-.075-.042-.149-.054-.206-.021-.113.063-.114.273-.001.471.056.097.13.172.205.214z" fill="#3a3d3f" fill-rule="nonzero"/><path d="m317.926 469.734c.001-.185-.128-.408-.289-.5-.16-.093-.29-.017-.291.164-.001.185.128.412.289.504.16.093.291.017.291-.168z" fill="#3a3d3f" fill-rule="nonzero"/><path d="m320.84 471.083c-.16-.092-.29-.016-.291.164-.001.185.129.408.289.505.16.088.291.017.291-.168.001-.185-.129-.408-.289-.501z" fill="#3a3d3f" fill-rule="nonzero"/><path d="m328.18 473.374 19.68-11.131.034-11.896-19.68 11.131z" fill="#526aa7" fill-rule="nonzero"/><path d="m328.214 461.478 19.68-11.131-2.676-11.563-19.68 11.13z" fill="#70575d" fill-rule="nonzero"/><path d="m325.538 449.914 19.68-11.13-13.194-7.617-19.68 11.131z" fill="#577abc" fill-rule="nonzero"/><path d="m326.424 450.305 18.273-10.336 2.311 9.987-18.273 10.337zm-.886-.391 2.676 11.564 19.68-11.131-2.676-11.563z" fill="#577abc" fill-rule="nonzero"/><path d="m344.384 454.564v7.637l-12.693 7.344v-7.642z" fill="#4f565b" fill-rule="nonzero"/><path d="m329.142 471.247v2.678l19.576-11.257v-2.678z" fill="#d1d2d3" fill-rule="nonzero"/><path d="m329.142 471.247v2.678l-.962-.538v-2.682z" fill="#bbbdbf" fill-rule="nonzero"/><path d="m348.717 459.99-19.575 11.257-.962-.542 19.572-11.261z" fill="#e7e7e8" fill-rule="nonzero"/><path d="m328.214 467.969 3.144-1.812v1.891l-3.144 1.795z" fill="#f3f3f5"/><path d="m344.75 458.418 3.144-1.812v1.896l-3.144 1.791z" fill="#f3f3f5"/><path d="m312.344 442.298 13.194 7.616 2.676 11.564-.034 11.896-2.822-1.635c-.72-3.375-3.078-6.906-5.883-8.525-2.798-1.618-5.163-.824-5.907 1.699l-1.263-.736v-7.856z" fill="#48629a" fill-rule="nonzero"/><path d="m317.573 446.291c-.139-.08-.252-.017-.252.147l-.02 6.89c-.001.164.112.357.25.437l8.756 5.057c.173.096.295-.03.239-.253l-1.554-7.801c-.035-.135-.13-.269-.237-.328z" fill="#70575d" fill-rule="nonzero"/><path d="m329.624 471.92v1.227l2.382-1.37v-1.228z" fill="#f69220" fill-rule="nonzero"/><path d="m345.955 462.563v1.227l2.382-1.37v-1.228z" fill="#f69220" fill-rule="nonzero"/><path d="m284.509 443.412v4.443l8.287 4.699v-4.35z" fill="#bbbdbf" fill-rule="nonzero"/><path d="m292.796 452.554 1.564-.853v-2.594l-1.564-.903z" fill="#97999c" fill-rule="nonzero"/><path d="m326.424 450.305 18.273-10.336 2.311 9.987z" fill="#8d787e" fill-rule="nonzero"/><path d="m287.173 436.896-2.322-1.337v-15.431l2.322 1.333z" fill="#577abc" fill-rule="nonzero"/><path d="m276.93 428.371 2.799 1.615v-12.817l2.323 1.337v15.435l-2.323-1.337v-.004l-5.121-2.959v-15.431l2.322 1.332z" fill="#577abc" fill-rule="nonzero"/><path d="m271.809 412.587v15.431l-2.322-1.332v-15.435z" fill="#577abc" fill-rule="nonzero"/><path d="m410.01 228.93 23.228-13.643v3.994l-23.228 13.517z" fill="#d18084" fill-rule="nonzero"/><path d="m288.325 158.598 121.693 70.338-.008 3.862-121.685-70.205z" fill="#d3d3d3" fill-rule="nonzero"/><path d="m311.753 145.069-23.338 13.578 121.603 70.289 23.225-13.641z" fill="#aa353a" fill-rule="nonzero"/><path d="m288.414 158.645v3.996l121.596 70.157.008-3.862z" fill="#5d0b0e" fill-rule="nonzero"/><path d="m546.178 362.576-280.689 162.27 53.811 31.081 280.7-162.264z" fill="#38833a" fill-rule="nonzero"/><path d="m265.489 524.846 53.811 31.081-.005 8.84-53.806-31.077z" fill="#c28d86" fill-rule="nonzero"/><path d="m228.102 418.666v29.134l22.734-13.119v-29.135z" fill="#d18084" fill-rule="nonzero"/><path d="m228.102 418.666v29.134l-69.525-40.143v-29.138z" fill="#5d0b0e" fill-rule="nonzero"/><path d="m220.889 420.221v9.071l-21.642-12.497v-9.071z" fill="#c6dae7" fill-rule="nonzero"/><path d="m220.889 433.021v6.208l-14.815-8.554v-6.209z" fill="#c6dae7" fill-rule="nonzero"/><path d="m250.836 405.546-22.734 13.12-69.525-40.147 22.733-13.117z" fill="#aa353a" fill-rule="nonzero"/><path d="m191.382 440.061v29.135l22.734-13.119v-29.135z" fill="#d18084" fill-rule="nonzero"/><path d="m191.382 440.061v29.135l-69.526-40.148v-29.134z" fill="#5d0b0e" fill-rule="nonzero"/><path d="m184.169 441.617v9.071l-21.643-12.497v-9.071z" fill="#c6dae7" fill-rule="nonzero"/><path d="m184.169 454.416v6.209l-14.815-8.554v-6.209z" fill="#c6dae7" fill-rule="nonzero"/><path d="m214.116 426.942-22.734 13.119-69.526-40.147 22.734-13.119z" fill="#aa353a" fill-rule="nonzero"/><path d="m476.122 378.619-62.951-36.565 11.984-7.07.013.01c.046.044.088.088.134.132l.101.1c.046.047.092.095.139.144l.092.096c.055.057.105.115.16.174l.063.071c.076.084.147.169.219.256l.037.044c.059.073.118.147.177.221.076.098.151.196.227.295v.004c.105.142.206.287.307.433l.067.103c.038.055.071.108.105.162.034.049.063.098.093.147.033.055.067.111.1.166.03.045.055.092.084.138.08.136.156.272.232.411.025.05.05.102.08.153.025.053.054.106.079.16.038.076.076.152.114.228l.034.074c.046.099.092.198.134.297l.034.079c.033.074.067.148.096.222l.042.102c.026.071.055.143.08.215l.034.091c.038.095.067.189.101.284l.008.024c.034.103.067.205.097.307l.029.1c.021.071.042.142.063.213.009.039.021.078.03.117.017.066.033.133.05.199.009.038.017.077.025.116.017.068.03.137.047.204l.021.107c.017.089.033.178.046.266l.008.039c.013.101.03.203.042.303l.009.086c.008.072.017.143.021.215l.008.104c.004.068.009.136.013.204l.004.096c.004.097.004.192.004.287 0 .1 0 .198-.004.294l-.004.081c-.004.066-.009.131-.017.196l-.013.11c-.004.055-.008.109-.016.162-.005.039-.013.078-.017.117-.009.049-.017.096-.025.145-.009.043-.017.085-.026.128-.008.042-.021.085-.029.127-.013.05-.025.099-.038.147l-.034.111c-.016.058-.037.115-.058.17l-.034.104-.021.051c-.025.058-.046.115-.072.17l-.016.032c-.034.069-.068.136-.101.201-.038.066-.076.128-.114.189l-.025.035c-.029.045-.059.089-.092.132l-.038.05c-.03.039-.059.077-.093.112l-.033.042c-.042.048-.089.095-.135.14l-.017.018c-.042.039-.084.074-.126.11l-.046.038-.109.083-.047.032c-.05.036-.105.07-.155.101l5.095-2.962c.054-.031.105-.065.159-.101l.047-.033.109-.083.046-.037c.042-.035.084-.072.122-.11l.021-.018c.046-.044.088-.092.13-.139l.038-.043c.03-.036.063-.073.093-.112l.037-.051c.034-.042.063-.086.093-.13l.025-.036.004-.011c.564-.884.677-2.062.601-3.086-.071-1.006-.306-2.012-.676-2.976l23.665 13.686-4.09 2.375c.068-.037.135-.072.202-.103l.067-.029c.047-.021.093-.04.143-.058.038-.014.076-.027.118-.039l.072-.023c.05-.014.1-.026.151-.037l.05-.012c.063-.013.126-.023.194-.032l.05-.006c.059-.007.118-.012.181-.016l.017-.001c.046-.002.092-.003.138-.003h.047c.046 0 .092.003.138.005l.11.005c.037.003.079.008.117.012.042.005.084.009.126.016l.106.017c.046.008.092.016.138.026l.097.021c.046.011.097.023.147.037l.093.025c.054.016.109.033.163.051l.076.025c.08.028.164.058.244.091.084.033.164.067.248.105l.076.037c.058.027.117.055.176.086l.084.045c.08.041.156.082.236.128.088.05.172.103.26.158l.017.009c.084.054.168.11.252.168l.084.06c.055.04.11.079.164.12l.101.077c.051.039.101.077.151.117l.106.088c.05.039.096.078.142.119l.11.096c.046.04.092.081.134.122l.11.102.138.132.101.1c.046.047.093.095.139.143l.092.097c.055.057.105.115.16.174l.063.071c.076.084.147.169.219.257l.033.043c.063.073.122.147.181.221.076.098.151.195.223.295l.004.004c.105.142.206.286.303.433l.071.103c.034.054.072.108.105.162.03.049.063.098.093.147.033.055.067.11.101.165.029.047.054.092.08.139.079.135.159.272.231.411.029.051.054.101.08.153.029.053.058.107.084.16.037.076.075.152.109.228l.038.074c.046.098.092.198.134.297l.034.079c.034.074.063.147.092.222l.042.101c.03.072.055.144.085.215l.033.092c.034.094.067.189.101.284l.008.024c.034.102.068.205.097.308l.03.099c.021.071.042.142.058.212.013.04.021.078.034.118.017.066.034.132.046.198.013.039.021.078.03.117.016.068.029.136.042.204l.021.107c.021.089.033.177.05.266l.009.039c.012.101.025.202.037.303l.013.086c.008.072.013.143.021.215l.008.104c.005.068.009.135.013.203l.004.098c.004.096.004.192.004.287 0 .099 0 .197-.008.293l-.004.08c-.004.067-.009.132-.013.196l-.012.111c-.005.054-.013.109-.017.162-.009.039-.013.077-.021.116-.004.049-.013.098-.025.145-.005.043-.017.086-.026.129-.008.042-.016.085-.029.127-.008.05-.021.098-.038.146l-.029.112c-.017.058-.038.114-.059.17l-.038.104-.017.051c-.025.058-.05.114-.075.169l-.013.033c-.034.069-.067.137-.101.202-.038.065-.076.127-.113.187l-.026.036c-.029.045-.059.089-.092.131l-.038.051c-.029.038-.059.076-.092.113l-.034.042c-.046.047-.088.094-.135.138l-.021.019c-.037.038-.08.074-.122.109l-.046.038-.109.083-.046.033c-.051.035-.105.069-.16.1l5.099-2.961c.054-.032.105-.066.16-.102l.042-.032.113-.083.042-.038c.042-.035.084-.071.126-.109l.017-.019c.046-.044.092-.09.135-.139l.037-.042.089-.112.042-.051c.029-.042.059-.086.092-.13l.021-.036.009-.011c.491-.773.643-1.771.622-2.694 0 .001.004.001.004.002l.08.025c.08.028.16.057.239.09.084.033.164.069.248.106l.076.037c.059.027.118.055.177.084l.088.047c.076.04.155.082.231.127.088.051.177.103.261.159l.016.01c.085.053.169.109.253.166l.084.061c.054.04.113.079.168.12l.101.077c.05.038.096.077.147.117l.109.088c.046.039.093.078.139.118l.113.096c.042.041.089.082.135.123l.109.102c.047.043.093.088.135.132l.101.099c.046.047.092.095.138.144l.093.097c.054.057.109.115.16.174l.063.071c.075.084.147.169.218.255l.038.044c.059.074.118.147.177.222.075.096.151.195.227.294v.005c.105.141.206.286.306.432l.068.103c.038.054.071.109.105.163.033.049.063.097.092.146.034.055.068.11.101.166.03.046.055.092.084.138.08.136.156.274.231.411.026.051.055.102.08.154s.055.106.084.16c.038.075.072.151.11.228l.037.073c.042.1.089.198.131.298l.038.078c.029.075.058.148.092.223l.042.102c.025.071.055.142.08.214l.034.092c.037.094.071.189.1.283l.009.024c.033.103.067.206.101.308l.025.1c.021.07.042.141.063.212.008.039.021.079.029.118.017.066.034.132.051.197.008.039.017.079.025.118.017.068.03.136.046.204l.021.107c.017.089.034.177.047.266l.008.038c.017.102.029.203.042.303l.008.085c.009.073.017.145.022.216l.008.104c.004.068.008.136.012.204l.005.097c.004.096.008.192.008.286-.004.101-.004.198-.008.295l-.005.08c-.004.066-.012.132-.016.196l-.009.111c-.008.055-.012.108-.021.161-.004.039-.012.078-.017.117-.008.049-.016.097-.025.145-.008.043-.017.086-.025.128-.008.043-.021.085-.029.128-.013.049-.026.098-.038.146l-.034.112c-.017.058-.038.114-.055.169l-.037.105-.021.051c-.026.057-.047.114-.072.169l-.017.033c-.029.068-.063.135-.101.201-.037.065-.075.128-.113.188l-.025.036c-.03.044-.059.088-.088.131l-.043.051c-.029.038-.058.075-.092.112l-.034.041c-.042.049-.088.095-.134.14l-.021.018c-.038.038-.08.075-.122.11l-.046.038-.11.082-.046.034c-.05.035-.101.069-.155.1l5.094-2.961c.055-.032.11-.066.16-.102l.046-.032.11-.084.046-.037c.042-.035.084-.072.122-.109l.021-.019c.046-.044.088-.091.134-.139l.034-.042c.033-.037.063-.074.092-.113l.038-.051c.034-.042.063-.086.093-.13l.025-.036.004-.011c.563-.884.677-2.062.605-3.086-.071-.982-.298-1.964-.651-2.907l4.25 2.46 11.866-6.713 8.525 4.953-26.445 15.597zm-9.218-20.93c-.117-.702-.311-1.397-.571-2.071l2.072 1.199zm-35.423-24.324c-.382-.494-.807-.954-1.257-1.372l1.266-.746z" fill="#ad887d"/><path d="m417.416 335.112 9.614 1.328-4.641-6.367-5.713 1.251z" fill="#240d21" fill-rule="nonzero"/><path d="m427.614 346.195.046-.038c.042-.036.084-.071.126-.11l.017-.018c.046-.045.093-.092.135-.14l.033-.042c.034-.035.063-.073.093-.112l.038-.05c.033-.043.063-.087.092-.132l.025-.035c.038-.061.076-.123.114-.189.033-.065.067-.132.101-.201l.016-.032c.026-.055.047-.112.072-.17l.021-.051.034-.104c.021-.055.042-.112.058-.17l.034-.111c.013-.048.025-.097.038-.147.008-.042.021-.085.029-.127.009-.043.017-.085.026-.128.008-.049.016-.096.025-.145.004-.039.012-.078.017-.117.008-.053.012-.107.016-.162l.013-.11c.008-.065.013-.13.017-.196l.004-.081c.004-.096.004-.194.004-.294 0-.095 0-.19-.004-.287l-.004-.096c-.004-.068-.009-.136-.013-.204l-.008-.104c-.004-.072-.013-.143-.021-.215l-.009-.086c-.012-.1-.029-.202-.042-.303l-.008-.039c-.013-.088-.029-.177-.046-.266l-.021-.107c-.017-.067-.03-.136-.047-.204-.008-.039-.016-.078-.025-.116-.017-.066-.033-.133-.05-.199-.009-.039-.021-.078-.03-.117-.021-.071-.042-.142-.063-.213l-.029-.1c-.03-.102-.063-.204-.097-.307l-.008-.024c-.034-.095-.063-.189-.101-.284l-.034-.091c-.025-.072-.054-.144-.08-.215l-.042-.102c-.029-.074-.063-.148-.096-.222l-.034-.079c-.042-.099-.088-.198-.134-.297l-.034-.074c-.038-.076-.076-.152-.114-.228-.025-.054-.054-.107-.079-.16-.03-.051-.055-.103-.08-.153-.076-.139-.152-.275-.232-.411-.029-.046-.054-.093-.084-.138-.033-.055-.067-.111-.1-.166-.03-.049-.059-.098-.093-.147-.034-.054-.067-.107-.105-.162l-.067-.103c-.101-.146-.202-.291-.307-.433v-.004c-.076-.099-.151-.197-.227-.295-.059-.074-.118-.148-.177-.221l-.037-.044c-.072-.087-.143-.172-.219-.256l-.063-.071c-.055-.059-.105-.117-.16-.174l-.092-.096c-.047-.049-.093-.097-.139-.144l-.101-.1c-.046-.044-.088-.088-.134-.132l-.11-.101c-.046-.042-.092-.082-.138-.123l-.11-.097c-.046-.039-.092-.079-.138-.118l-.11-.088c-.05-.04-.096-.078-.147-.116l-.101-.078c-.054-.041-.113-.08-.168-.119l-.084-.061c-.084-.058-.168-.113-.252-.167l-.017-.011c-.084-.054-.172-.107-.261-.157-.075-.045-.155-.087-.231-.128l-.088-.046c-.059-.029-.118-.058-.177-.085l-.075-.037c-.084-.037-.164-.072-.248-.105-.08-.033-.16-.063-.24-.09l-.08-.026c-.054-.017-.109-.035-.16-.05l-.096-.026c-.051-.014-.101-.026-.147-.037l-.093-.02c-.05-.01-.092-.019-.139-.026l-.109-.018c-.042-.006-.084-.011-.126-.016-.038-.004-.076-.008-.113-.011l-.114-.007c-.046-.001-.092-.003-.134-.003-.063-.001-.127-.001-.185.002l-.021.001c-.059.004-.122.01-.181.016l-.051.007c-.063.008-.13.019-.193.032l-.051.011c-.05.012-.101.023-.151.037l-.071.023c-.038.012-.08.025-.118.039-.046.018-.092.038-.139.058l-.071.028c-.067.032-.135.067-.198.105l5.095-2.963c.067-.037.135-.071.202-.103l.067-.029c.748-.325 1.631-.253 2.388-.006.761.25 1.492.679 2.118 1.174l.059.046.105.089c2.295 1.896 3.943 4.88 4.157 7.865.076 1.024-.037 2.202-.601 3.086l-.004.011-.025.036c-.03.044-.059.088-.093.13l-.037.051c-.03.039-.063.076-.093.112l-.038.043c-.042.047-.084.095-.13.139l-.021.018c-.038.038-.08.075-.122.11l-.046.037-.109.083-.047.033c-.054.036-.105.07-.159.101l-5.095 2.962c.05-.031.105-.065.155-.101l.047-.032z" fill="#40363b" fill-rule="nonzero"/><path d="m423.532 333.758c2.951 1.704 5.339 5.834 5.326 9.225-.008 3.392-2.408 4.76-5.359 3.056s-5.335-5.834-5.327-9.226c.009-3.391 2.409-4.759 5.36-3.055z" fill="#4e444a" fill-rule="nonzero"/><path d="m423.352 336.142c1.82 1.052 3.312 3.515 3.472 5.653.008.13.017.26.017.388-.009 2.221-1.581 3.117-3.515 2-1.929-1.115-3.493-3.82-3.484-6.041 0-.127.003-.25.016-.37.169-1.946 1.673-2.681 3.494-1.63z" fill="#bbbdbf" fill-rule="nonzero"/><path d="m423.347 337.238c1.325.765 2.409 2.557 2.527 4.112.008.095.012.189.008.282-.004 1.615-1.143 2.267-2.551 1.455-1.404-.811-2.54-2.778-2.536-4.393 0-.094.005-.183.013-.27.122-1.416 1.215-1.95 2.539-1.186z" fill="#929497" fill-rule="nonzero"/><path d="m420.808 338.421c.101-1.172.871-1.74 1.884-1.466-.786-.019-1.354.54-1.438 1.534-.008.087-.013.176-.013.269-.004 1.615 1.131 3.583 2.535 4.394.227.132.45.224.66.28-.336-.007-.71-.119-1.105-.348-1.404-.811-2.54-2.778-2.536-4.394 0-.092.005-.182.013-.269z" fill="#d1d2d3" fill-rule="nonzero"/><path d="m422.381 340.472c-.072-.042-.143-.053-.202-.021-.109.065-.114.273 0 .465.054.096.13.171.202.214.071.041.147.052.201.02.114-.064.114-.273.005-.465-.059-.096-.131-.171-.206-.213z" fill="#3a3d3f" fill-rule="nonzero"/><path d="m423.503 339.416c-.357-.207-.652-.041-.652.371 0 .413.29.915.648 1.122.357.208.651.041.651-.371 0-.413-.286-.915-.647-1.122z" fill="#3a3d3f" fill-rule="nonzero"/><path d="m423.499 341.648c-.16-.092-.286-.019-.29.164 0 .181.13.401.286.493.159.091.285.018.285-.164.005-.182-.126-.402-.281-.493z" fill="#3a3d3f" fill-rule="nonzero"/><path d="m424.617 341.761c-.076-.042-.147-.052-.206-.021-.109.064-.109.272 0 .465.055.096.13.17.202.213.071.043.147.052.201.021.114-.064.114-.272.005-.465-.059-.096-.131-.171-.202-.213z" fill="#3a3d3f" fill-rule="nonzero"/><path d="m422.389 337.907c-.071-.042-.147-.052-.202-.02-.113.064-.113.272 0 .464.055.097.126.171.202.213.071.043.147.052.202.02.113-.063.113-.271 0-.464-.055-.096-.126-.171-.202-.213z" fill="#3a3d3f" fill-rule="nonzero"/><path d="m423.507 338.678c.156.091.286.017.286-.164 0-.182-.126-.402-.286-.494-.155-.091-.286-.018-.286.164 0 .181.126.403.286.494z" fill="#3a3d3f" fill-rule="nonzero"/><path d="m424.621 339.853c.072.043.147.053.202.02.109-.064.113-.271 0-.463-.055-.097-.126-.171-.202-.214-.071-.042-.147-.052-.202-.021-.113.064-.113.272 0 .465.055.096.126.171.202.213z" fill="#3a3d3f" fill-rule="nonzero"/><path d="m422.208 339.417c0-.182-.126-.403-.286-.494-.155-.091-.285-.018-.285.163 0 .182.126.403.285.494.156.091.286.018.286-.163z" fill="#3a3d3f" fill-rule="nonzero"/><path d="m425.079 340.745c-.155-.091-.286-.018-.286.164s.127.402.286.493c.156.091.286.018.286-.163 0-.182-.126-.403-.286-.494z" fill="#3a3d3f" fill-rule="nonzero"/><path d="m428.858 336.44 1.946 7.425 2.758 1.624v-6.332z" fill="#32343f" fill-rule="nonzero"/><path d="m433.562 345.489 4.876-3.513-4.876-2.819z" fill="#240d21" fill-rule="nonzero"/><path d="m460.708 365.353.046-.038c.042-.035.085-.071.122-.109l.021-.019c.047-.044.089-.091.135-.138l.034-.042c.033-.037.063-.075.092-.113l.038-.051c.033-.042.063-.086.092-.131l.026-.036c.037-.06.075-.122.113-.187.034-.065.067-.133.101-.202l.013-.033c.025-.055.05-.111.075-.169l.017-.051.038-.104c.021-.056.042-.112.059-.17l.029-.112c.017-.048.03-.096.038-.146.013-.042.021-.085.029-.127.009-.043.021-.086.026-.129.012-.047.021-.096.025-.145.008-.039.012-.077.021-.116.004-.053.012-.108.017-.162l.012-.111c.004-.064.009-.129.013-.196l.004-.08c.008-.096.008-.194.008-.293 0-.095 0-.191-.004-.287l-.004-.098c-.004-.068-.008-.135-.013-.203l-.008-.104c-.008-.072-.013-.143-.021-.215l-.013-.086c-.012-.101-.025-.202-.037-.303l-.009-.039c-.017-.089-.029-.177-.05-.266l-.021-.107c-.013-.068-.026-.136-.042-.204-.009-.039-.017-.078-.03-.117-.012-.066-.029-.132-.046-.198-.013-.04-.021-.078-.034-.118-.016-.07-.037-.141-.058-.212l-.03-.099c-.029-.103-.063-.206-.097-.308l-.008-.024c-.034-.095-.067-.19-.101-.284l-.033-.092c-.03-.071-.055-.143-.085-.215l-.042-.101c-.029-.075-.058-.148-.092-.222l-.034-.079c-.042-.099-.088-.199-.134-.297l-.038-.074c-.034-.076-.072-.152-.109-.228-.026-.053-.055-.107-.084-.16-.026-.052-.051-.102-.08-.153-.072-.139-.152-.276-.231-.411-.026-.047-.051-.092-.08-.139-.034-.055-.068-.11-.101-.165-.03-.049-.063-.098-.093-.147-.033-.054-.071-.108-.105-.162l-.071-.103c-.097-.147-.198-.291-.303-.433l-.004-.004c-.072-.1-.147-.197-.223-.295-.059-.074-.118-.148-.181-.221l-.033-.043c-.072-.088-.143-.173-.219-.257l-.063-.071c-.055-.059-.105-.117-.16-.174l-.092-.097c-.046-.048-.093-.096-.139-.143l-.101-.1c-.046-.044-.092-.088-.138-.132l-.11-.102c-.042-.041-.088-.082-.134-.122l-.11-.096c-.046-.041-.092-.08-.142-.119l-.106-.088c-.05-.04-.1-.078-.151-.117l-.101-.077c-.054-.041-.109-.08-.164-.12l-.084-.06c-.084-.058-.168-.114-.252-.168l-.017-.009c-.088-.055-.172-.108-.26-.158-.08-.046-.156-.087-.236-.128l-.084-.045c-.059-.031-.118-.059-.176-.086l-.076-.037c-.084-.038-.164-.072-.248-.105-.08-.033-.164-.063-.244-.091l-.076-.025c-.054-.018-.109-.035-.163-.051l-.093-.025c-.05-.014-.101-.026-.147-.037l-.097-.021c-.046-.01-.092-.018-.138-.026l-.106-.017c-.042-.007-.084-.011-.126-.016-.038-.004-.08-.009-.117-.012l-.11-.005c-.046-.002-.092-.005-.138-.005-.059-.001-.122 0-.185.003l-.017.001c-.063.004-.122.009-.181.016l-.05.006c-.068.009-.131.019-.194.032l-.05.012c-.051.011-.101.023-.151.037l-.072.023c-.042.012-.08.025-.118.039-.05.018-.096.037-.143.058l-.067.029c-.067.031-.134.066-.202.103l5.099-2.962c.068-.038.131-.072.202-.104l.067-.029c.744-.323 1.631-.252 2.384-.005.761.249 1.496.679 2.122 1.174l.055.046.109.088c2.296 1.897 3.939 4.881 4.158 7.866.075 1.024-.038 2.201-.601 3.086l-.009.011-.021.036c-.033.044-.063.088-.092.13l-.042.051-.089.112-.037.042c-.043.049-.089.095-.135.139l-.017.019c-.042.038-.084.074-.126.109l-.042.038-.113.083-.042.032c-.055.036-.106.07-.16.102l-5.099 2.961c.055-.031.109-.065.16-.1l.046-.033z" fill="#40363b" fill-rule="nonzero"/><path d="m456.627 352.917c2.95 1.703 5.334 5.834 5.325 9.226-.008 3.391-2.408 4.758-5.359 3.055-2.951-1.704-5.338-5.835-5.326-9.227.009-3.391 2.409-4.758 5.36-3.054z" fill="#4e444a" fill-rule="nonzero"/><path d="m456.442 355.301c1.824 1.052 3.316 3.514 3.476 5.653.008.13.013.26.013.388-.005 2.22-1.577 3.116-3.51 2.001-1.934-1.116-3.493-3.82-3.489-6.042 0-.127.008-.251.017-.369.172-1.948 1.673-2.683 3.493-1.631z" fill="#bbbdbf" fill-rule="nonzero"/><path d="m456.442 356.397c1.324.765 2.408 2.556 2.526 4.111.008.097.008.19.008.283-.004 1.615-1.147 2.267-2.551 1.455s-2.543-2.778-2.539-4.394c0-.093.004-.183.013-.269.126-1.416 1.219-1.95 2.543-1.186z" fill="#929497" fill-rule="nonzero"/><path d="m453.899 357.58c.105-1.173.874-1.74 1.887-1.466-.79-.019-1.354.541-1.442 1.534-.008.086-.013.176-.013.268-.004 1.616 1.131 3.583 2.539 4.395.227.131.45.224.66.281-.336-.008-.71-.121-1.105-.349-1.404-.812-2.543-2.778-2.539-4.394 0-.093.004-.182.013-.269z" fill="#d1d2d3" fill-rule="nonzero"/><path d="m455.475 359.631c-.072-.042-.147-.053-.202-.021-.113.064-.113.272 0 .465.055.097.126.171.202.213.071.042.143.053.202.02.109-.064.113-.272 0-.464-.055-.097-.126-.171-.202-.213z" fill="#3a3d3f" fill-rule="nonzero"/><path d="m456.597 358.575c-.357-.208-.651-.041-.651.372-.005.411.29.914.647 1.121s.652.041.652-.371c0-.413-.291-.915-.648-1.122z" fill="#3a3d3f" fill-rule="nonzero"/><path d="m456.589 360.806c-.156-.09-.286-.018-.286.164 0 .181.126.402.286.493.155.092.286.018.286-.163s-.126-.402-.286-.494z" fill="#3a3d3f" fill-rule="nonzero"/><path d="m457.707 360.92c-.072-.043-.147-.052-.202-.021-.113.064-.113.272 0 .465.055.096.126.17.202.212.071.043.147.053.202.021.113-.064.113-.272 0-.464-.055-.097-.126-.172-.202-.213z" fill="#3a3d3f" fill-rule="nonzero"/><path d="m455.483 357.066c-.075-.042-.147-.053-.202-.021-.113.064-.113.273-.004.465.059.096.131.171.202.213.076.043.147.052.206.02.109-.063.109-.271 0-.463-.055-.098-.13-.172-.202-.214z" fill="#3a3d3f" fill-rule="nonzero"/><path d="m456.597 357.837c.16.09.286.017.29-.164 0-.182-.13-.403-.286-.494-.159-.091-.285-.018-.285.164-.005.181.126.402.281.494z" fill="#3a3d3f" fill-rule="nonzero"/><path d="m457.711 359.012c.076.042.147.052.206.021.109-.064.109-.273 0-.465-.055-.096-.13-.17-.202-.213-.075-.043-.147-.053-.201-.021-.114.065-.114.272-.005.464.059.097.131.171.202.214z" fill="#3a3d3f" fill-rule="nonzero"/><path d="m455.303 358.575c0-.181-.127-.402-.286-.493-.156-.092-.286-.018-.286.163 0 .182.126.402.286.493.155.091.286.018.286-.163z" fill="#3a3d3f" fill-rule="nonzero"/><path d="m458.174 359.904c-.16-.091-.286-.018-.286.164 0 .181.126.402.286.493.155.091.285.018.285-.163 0-.182-.126-.403-.285-.494z" fill="#3a3d3f" fill-rule="nonzero"/><path d="m472.264 371.965.046-.038c.042-.035.084-.072.122-.11l.021-.018c.046-.045.092-.091.134-.14l.034-.041c.034-.037.063-.074.092-.112l.043-.051c.029-.043.058-.087.088-.131l.025-.036c.038-.06.076-.123.113-.188.038-.066.072-.133.101-.201l.017-.033c.025-.055.046-.112.072-.169l.021-.051.037-.105c.017-.055.038-.111.055-.169l.034-.112c.012-.048.025-.097.038-.146.008-.043.021-.085.029-.128.008-.042.017-.085.025-.128.009-.048.017-.096.025-.145.005-.039.013-.078.017-.117.009-.053.013-.106.021-.161l.009-.111c.004-.064.012-.13.016-.196l.005-.08c.004-.097.004-.194.008-.295 0-.094-.004-.19-.008-.286l-.005-.097c-.004-.068-.008-.136-.012-.204l-.008-.104c-.005-.071-.013-.143-.022-.216l-.008-.085c-.013-.1-.025-.201-.042-.303l-.008-.038c-.013-.089-.03-.177-.047-.266l-.021-.107c-.016-.068-.029-.136-.046-.204-.008-.039-.017-.079-.025-.118-.017-.065-.034-.131-.051-.197-.008-.039-.021-.079-.029-.118-.021-.071-.042-.142-.063-.212l-.025-.1c-.034-.102-.068-.205-.101-.308l-.009-.024c-.029-.094-.063-.189-.1-.283l-.034-.092c-.025-.072-.055-.143-.08-.214l-.042-.102c-.034-.075-.063-.148-.092-.223l-.038-.078c-.042-.1-.089-.198-.131-.298l-.037-.073c-.038-.077-.072-.153-.11-.228-.029-.054-.059-.108-.084-.16s-.054-.103-.08-.154c-.075-.137-.151-.275-.231-.411-.029-.046-.054-.092-.084-.138-.033-.056-.067-.111-.101-.166-.029-.049-.059-.097-.092-.146-.034-.054-.067-.109-.105-.163l-.068-.103c-.1-.146-.201-.291-.306-.432v-.005c-.076-.099-.152-.198-.227-.294-.059-.075-.118-.148-.177-.222l-.038-.044c-.071-.086-.143-.171-.218-.255l-.063-.071c-.051-.059-.106-.117-.16-.174l-.093-.097c-.046-.049-.092-.097-.138-.144l-.101-.099c-.042-.044-.088-.089-.135-.132l-.109-.102c-.046-.041-.093-.082-.135-.123l-.113-.096c-.046-.04-.093-.079-.139-.118l-.109-.088c-.051-.04-.097-.079-.147-.117l-.101-.077c-.055-.041-.114-.08-.168-.12l-.084-.061c-.084-.057-.168-.113-.253-.166l-.016-.01c-.084-.056-.173-.108-.261-.159-.076-.045-.155-.087-.231-.127l-.088-.047c-.059-.029-.118-.057-.177-.084l-.076-.037c-.084-.037-.164-.073-.248-.106-.079-.033-.159-.062-.239-.09l-.08-.025c-.055-.018-.109-.035-.164-.05l-.092-.027c-.051-.013-.097-.025-.148-.037l-.092-.02c-.046-.01-.093-.018-.139-.026l-.109-.018c-.042-.006-.084-.01-.126-.015-.038-.004-.076-.009-.114-.012l-.113-.005c-.046-.003-.093-.005-.135-.005-.063-.001-.126 0-.185.002l-.021.002c-.059.003-.117.009-.18.016l-.051.006c-.063.009-.13.019-.193.032l-.051.011c-.05.012-.101.024-.147.038l-.075.023c-.038.012-.08.024-.118.038-.046.018-.093.038-.139.058l-.071.029c-.068.032-.135.067-.198.104l5.099-2.963c.063-.037.13-.071.198-.103l.067-.029c.748-.323 1.631-.253 2.387-.005.761.249 1.493.678 2.119 1.173l.059.046.105.089c2.295 1.897 3.943 4.881 4.161 7.865.072 1.024-.042 2.202-.605 3.086l-.004.011-.025.036c-.03.044-.059.088-.093.13l-.038.051c-.029.039-.059.076-.092.113l-.034.042c-.046.048-.088.095-.134.139l-.021.019c-.038.037-.08.074-.122.109l-.046.037-.11.084-.046.032c-.05.036-.105.07-.16.102l-5.094 2.961c.054-.031.105-.065.155-.1l.046-.034.11-.082z" fill="#40363b" fill-rule="nonzero"/><path d="m468.182 359.528c2.955 1.704 5.339 5.835 5.33 9.226-.013 3.391-2.413 4.76-5.364 3.055-2.95-1.704-5.334-5.834-5.325-9.225.008-3.392 2.408-4.759 5.359-3.056z" fill="#4e444a" fill-rule="nonzero"/><path d="m468.001 361.912c1.82 1.052 3.313 3.515 3.472 5.653.013.131.017.26.017.388-.008 2.221-1.58 3.117-3.51 2.001-1.933-1.116-3.497-3.821-3.489-6.042 0-.127.005-.251.017-.37.168-1.946 1.673-2.681 3.493-1.63z" fill="#bbbdbf" fill-rule="nonzero"/><path d="m467.997 363.009c1.324.765 2.409 2.556 2.526 4.112.009.094.013.189.013.281-.008 1.616-1.147 2.267-2.556 1.455-1.404-.811-2.539-2.778-2.534-4.394 0-.092.004-.182.012-.269.122-1.415 1.215-1.95 2.539-1.185z" fill="#929497" fill-rule="nonzero"/><path d="m465.458 364.192c.101-1.174.87-1.741 1.883-1.466-.786-.02-1.353.539-1.437 1.533-.009.087-.013.176-.013.27-.004 1.615 1.131 3.582 2.535 4.394.227.131.45.224.66.281-.332-.008-.711-.121-1.106-.35-1.404-.81-2.539-2.778-2.534-4.393 0-.093.004-.183.012-.269z" fill="#d1d2d3" fill-rule="nonzero"/><path d="m467.034 366.243c-.075-.043-.147-.053-.205-.021-.11.064-.11.272 0 .465.054.096.13.171.201.213.076.042.147.052.202.02.114-.064.114-.272.004-.465-.059-.096-.13-.17-.202-.212z" fill="#3a3d3f" fill-rule="nonzero"/><path d="m468.153 365.186c-.358-.206-.652-.04-.652.372s.29.915.647 1.122c.362.207.652.041.652-.372.004-.412-.29-.915-.647-1.122z" fill="#3a3d3f" fill-rule="nonzero"/><path d="m468.148 367.418c-.159-.091-.285-.018-.29.164 0 .181.126.402.286.493s.286.019.29-.163c0-.182-.13-.403-.286-.494z" fill="#3a3d3f" fill-rule="nonzero"/><path d="m469.267 367.531c-.076-.042-.148-.052-.206-.02-.11.064-.11.271 0 .464.054.097.13.171.201.213.076.043.147.053.202.021.114-.064.114-.272.004-.465-.059-.096-.13-.171-.201-.213z" fill="#3a3d3f" fill-rule="nonzero"/><path d="m467.039 363.677c-.072-.041-.143-.051-.202-.02-.114.064-.114.272 0 .465.055.096.126.17.202.212.071.043.147.053.201.021.114-.064.114-.272 0-.464-.054-.097-.126-.171-.201-.214z" fill="#3a3d3f" fill-rule="nonzero"/><path d="m468.157 364.447c.155.092.286.018.286-.163s-.126-.402-.286-.493c-.156-.091-.286-.018-.286.163s.126.403.286.493z" fill="#3a3d3f" fill-rule="nonzero"/><path d="m469.271 365.623c.071.042.147.053.202.021.113-.064.113-.272 0-.465-.055-.096-.127-.17-.202-.212-.072-.043-.147-.053-.202-.021-.113.063-.113.271 0 .464.055.097.126.172.202.213z" fill="#3a3d3f" fill-rule="nonzero"/><path d="m466.858 365.186c0-.18-.126-.401-.286-.493-.155-.09-.286-.018-.286.163 0 .182.126.404.286.494.16.092.286.019.286-.164z" fill="#3a3d3f" fill-rule="nonzero"/><path d="m469.729 366.516c-.156-.091-.286-.019-.286.163s.126.403.286.494c.155.091.286.018.286-.164 0-.181-.126-.402-.286-.493z" fill="#3a3d3f" fill-rule="nonzero"/><path d="m484.307 365.625v4.191l14.346-8.293v-4.191z" fill="#240d21" fill-rule="nonzero"/><path d="m431.515 321.637 19.353-10.949-.042 13.821-19.349 10.949z" fill="#bbbcbc" fill-rule="nonzero"/><path d="m418.513 314.13 19.349-10.948 13.006 7.506-19.353 10.949z" fill="#e0e4e4" fill-rule="nonzero"/><path d="m496.791 359.513-9.886 5.595-.009 4.753-4.741 2.681.021-7.76 19.353-10.948-.026 7.76-4.72 2.672z" fill="#383a45" fill-rule="nonzero"/><path d="m431.477 335.458 19.349-10.949 50.703 29.325-19.353 10.948z" fill="#3c3f4b" fill-rule="nonzero"/><path d="m432.595 334.826 13.535-7.659z" fill="#929293" fill-rule="nonzero"/><path d="m481.957 363.501-49.362-28.675 13.535-7.659 4.305-2.436 49.362 28.675z" fill="#2d3039" fill-rule="nonzero"/><path d="m500.381 335.529c-1.824-.861-3.947-.349-5.671.543l-.004.003c-.071.037-.143.075-.21.115l-.042.022c-.071.038-.143.078-.214.119l-46.004-26.762c.072-.04.139-.081.211-.119l.042-.022.033-.019c.059-.033.118-.064.181-.096l.004-.002c1.627-.843 3.645-1.351 5.414-.651l.076.03.109.047.068.031c.042.018.079.038.117.058l.055.028c.059.03.113.06.172.093l46.003 26.761c-.113-.065-.227-.124-.34-.179z" fill="#feffff" fill-rule="nonzero"/><path d="m494.24 336.331-46.004-26.762-5.586 3.224 46.007 26.762z" fill="#feffff" fill-rule="nonzero"/><path d="m433.583 328.293c.017-1.166.189-2.352.467-3.452.016-.06.033-.121.05-.182l.025-.1.025-.095.021-.074.03-.101c.017-.057.034-.115.05-.172l.03-.095.012-.039c.017-.056.034-.111.051-.166l.017-.059c.029-.083.054-.165.084-.247 1.307-3.905 3.829-7.706 7.23-10.092l.08-.058.046-.03.101-.07.067-.045c.071-.046.143-.093.214-.139l.009-.006c.067-.043.138-.085.206-.127l.067-.042.097-.057.088-.052 46.007 26.762c-.063.036-.122.072-.185.109l-.067.042c-.071.042-.139.084-.206.127l-.008.006c-.076.046-.143.092-.215.139l-.067.045c-.05.034-.097.065-.147.1l-.084.058c-.042.031-.088.063-.135.095l-.084.06c-.042.032-.084.064-.13.098l-.084.063c-.046.035-.092.07-.139.106l-.071.058c-.055.04-.105.08-.151.121l-.064.05c-.071.057-.142.116-.214.176l-.042.036c-.055.049-.113.096-.168.145l-.076.068c-.046.039-.088.078-.134.118l-.084.079c-.042.038-.08.075-.122.112l-.089.085c-.042.037-.079.074-.117.112l-.089.084c-.037.038-.075.075-.113.114l-.088.088c-.038.038-.076.077-.114.116l-.088.088c-.038.039-.076.078-.114.118l-.079.09c-.042.042-.08.084-.118.127l-.076.08c-.042.048-.088.097-.13.146l-.059.067c-.063.069-.122.139-.181.21l-.008.006c-.063.073-.122.147-.185.221l-.067.081c-.038.048-.08.096-.118.145l-.076.093c-.033.044-.071.089-.105.133-.042.053-.08.106-.122.159l-.071.095c-.051.063-.097.126-.143.189l-.05.068c-.089.119-.177.24-.261.362l-.055.075c-.084.12-.164.241-.248.363l-.075.112c-.03.047-.063.095-.093.143-.025.04-.05.081-.08.122-.029.048-.059.095-.088.143-.025.042-.055.084-.08.124-.029.049-.059.096-.088.145-.025.042-.051.083-.076.125-.029.049-.059.097-.088.145l-.059.1c-.063.108-.122.215-.185.322l-.021.042c-.067.12-.134.24-.197.36-.022.039-.042.079-.064.119-.025.045-.05.091-.071.137-.025.045-.046.091-.071.136-.026.047-.047.092-.072.138-.025.051-.05.102-.076.152l-.05.103c-.025.056-.055.113-.08.17l-.042.091-.034.065c-.054.118-.105.235-.159.352l-.034.075c-.055.126-.109.253-.16.38-.029.062-.054.123-.075.184l-.026.055c-.033.086-.067.171-.1.256l-.026.067c-.025.065-.05.129-.071.194l-.034.087c-.021.059-.042.118-.063.177l-.033.091c-.026.067-.047.132-.068.199l-.025.065c-.029.088-.059.175-.084.263l-.017.058c-.025.068-.046.137-.067.206l-.029.095c-.017.057-.034.115-.047.171l-.029.102c-.017.057-.034.113-.051.17l-.025.099c-.017.061-.033.121-.046.182l-.021.085c-.021.087-.042.175-.063.263l-.009.023c-.016.08-.033.16-.05.241l-.021.086c-.013.059-.025.118-.034.178l-.021.097c-.012.058-.021.115-.033.172l-.017.092c-.008.064-.021.128-.029.191l-.013.069c-.013.086-.025.172-.038.258l-.008.052c-.009.069-.017.138-.026.207l-.012.082c-.004.059-.013.118-.017.177l-.013.087c-.004.063-.012.127-.016.19l-.005.064c-.008.085-.012.168-.016.252l-.005.055c-.004.065-.008.131-.012.196v.085c-.004.059-.004.118-.009.177v.572l.005.056c0 .062.004.124.004.186l.008.084c0 .052.004.105.009.156l.004.088c.122 1.598.672 3.364 1.896 4.468l.037.035.093.079.034.028c.042.034.084.068.13.1l.021.017.109.078.042.029.097.065.042.027c.042.028.088.056.134.083l-46.003-26.762c-.046-.026-.092-.055-.139-.083l-.042-.027-.096-.064-.042-.029-.11-.079-.021-.017c-1.315-.999-1.954-2.741-2.131-4.333-.05-.474-.071-.959-.067-1.446z" fill="#feffff" fill-rule="nonzero"/><path d="m488.657 339.555c-5.014 2.895-9.104 9.98-9.088 15.743.013 5.763 4.132 8.109 9.147 5.214l5.583-3.224c5.018-2.896 9.108-9.98 9.092-15.744-.017-5.762-4.132-8.109-9.151-5.213z" fill="#e0e4e4" fill-rule="nonzero"/><path d="m450.578 347.218-.017-.007-.025-.011-.017-.006-.025-.01-.017-.007-.017-.006-.021-.007-.017-.005-.025-.005-.017-.005-.021-.005-.017-.003-.037-.007-.009-.002-.029-.004-.009-.002-.042-.003-.046-.005h-.017l-.033-.001h-.021l-.03.001h-.021l-.025.002-.021.001-.025.003-.026.001-.021.004-.025.003-.021.003-.025.004-.021.004-.029.006-.017.003-.034.008-.013.003-.046.013-.012.003-.034.01-.05.016-.017.005-.03.011-.017.007-.042.015-.008.003-.046.02-.013.005-.033.016-.017.007-.034.017-.017.006-.046.025h-.004l-.046.027-.009.005-.05.027-10.517-6.119.046-.027.012-.005.005-.005.042-.022.042-.021.008-.003.013-.007.038-.016.012-.008.013-.005.025-.011.013-.006.046-.019.008-.003.042-.016.013-.006.021-.006.013-.004.016-.006.034-.01.013-.005.037-.011.009-.003.046-.012h.004l.013-.003.034-.008.033-.008.009-.001.05-.009.021-.003.013-.002.012-.001.021-.003.047-.004.025-.002.025-.001.021-.001h.025l.013-.001.008.001.038.001h.013l.05.004.038.004.013.001.029.005.008.001.034.006.004.001.013.003.025.005.017.005.038.011.025.006.013.006.012.004.008.003.026.009.017.007.025.012.017.006.025.013.012.007.038.021 10.517 6.119-.037-.022-.013-.006z" fill="#96989b" fill-rule="nonzero"/><path d="m449.174 347.401-10.517-6.119-1.278.738 10.517 6.118z" fill="#a3a7a9" fill-rule="nonzero"/><path d="m435.302 345.733v-.246l.004-.045v-.016l.005-.054v-.015l.004-.032v-.012l.004-.019.004-.041v-.019l.004-.006.005-.04v-.013l.008-.054v-.003l.004-.018.009-.043.004-.021v-.021l.004-.018.008-.023.005-.041.004-.019.004-.007.008-.048v-.006l.017-.055v-.005l.004-.019.013-.042.004-.023.009-.021.004-.017.004-.023.013-.039.008-.022v-.009l.013-.038.004-.014.017-.057.004-.003.004-.015.017-.045.004-.021.009-.022.008-.018.008-.021.017-.043.004-.016.005-.004.021-.054.004-.013.012-.035.005-.007.038-.087v-.006l.008-.011.034-.081.004-.009.004-.006.008-.02.021-.04.013-.023.008-.021.009-.014.012-.03.017-.033.017-.031.013-.018.004-.009.042-.082.008-.009.042-.074.005-.011.008-.012.021-.033.017-.029.021-.033.017-.028.021-.033.016-.028.021-.033.017-.02v-.006l.059-.082.013-.017.059-.083v-.002l.012-.014.03-.043.016-.022.03-.036.004-.007.021-.023.017-.022.025-.033.017-.018v-.003l.042-.048v-.001l.042-.045v-.003l.013-.015.029-.034.017-.018.021-.02.008-.009.017-.021.025-.027.021-.02.013-.013.013-.013.021-.02.025-.027.021-.019.008-.007.017-.018.021-.019.029-.027.021-.018.005-.003.025-.023.017-.016.038-.033.012-.008v-.001l.046-.04.013-.011.034-.024.004-.003.017-.014.029-.024.021-.015.017-.014.013-.008.016-.014.034-.022.017-.013.012-.007.021-.015.017-.011.051-.032v-.001l.046-.029.017-.009.021-.014.021-.011 10.517 6.118-.042.025-.013.01-.05.029v.001l-.051.032-.012.01-.034.022-.021.014-.029.022-.021.013-.03.023-.021.014-.029.024-.017.014-.034.028-.016.011-.047.04-.008.009-.042.032-.017.016-.029.027-.021.018-.026.026-.021.019-.029.026-.017.019-.029.026-.017.02-.03.027-.016.02-.026.027-.021.02-.025.029-.017.019-.029.033-.017.016-.038.047-.004.002-.042.05-.012.019-.03.033-.017.021-.025.031-.029.036-.013.022-.034.043-.012.015-.059.084-.013.017-.054.083-.017.025-.025.033-.017.028-.021.032-.017.029-.021.033-.017.029-.021.033-.013.023-.042.073-.004.01-.046.082-.013.027-.016.032-.034.063-.017.034-.012.024-.017.038-.013.021-.004.015-.038.08-.008.018-.038.087-.017.041-.004.013-.025.059-.005.015-.016.044-.009.02-.012.041-.009.021-.017.045-.004.015-.021.06-.004.014-.013.046-.008.022-.009.039-.008.023-.008.039-.009.023-.012.042-.005.02-.012.06v.005l-.013.054-.004.02-.008.04-.005.024-.008.038-.004.022-.009.043v.016l-.012.058v.013l-.004.047-.005.019-.004.04v.02l-.004.044-.004.015-.004.057v.057l-.005.02v.184l.005.042v.055l.004.02v.033l.004.022.004.034v.019l.004.036.005.017.008.052v.009l.008.042.005.019.008.032.013.052v.008l.012.043.004.013.013.039.008.018.009.033.008.017.017.042.004.013.026.053.012.032.004.006.021.039.005.011.016.026.009.013.012.023.009.011.017.023.008.01.017.029.004.003.025.03.004.009.021.021.009.01.017.021.008.006.025.027.009.006.021.02.008.008.021.017.009.007.029.023.004.004.025.018.009.007.021.014.012.007.03.019-10.517-6.119-.034-.019-.008-.006-.021-.015-.013-.006-.021-.019-.008-.004-.03-.022-.004-.007-.021-.018-.013-.008-.016-.019-.009-.007-.025-.026-.008-.006-.021-.022-.009-.01-.017-.021-.008-.008-.021-.03-.004-.004-.021-.028-.005-.01-.016-.024-.013-.016-.008-.017-.009-.014-.017-.026-.004-.011-.025-.045-.013-.03-.004-.002-.021-.052-.008-.014-.017-.041v-.009l-.004-.009-.013-.032-.004-.018-.013-.04-.004-.011v-.001l-.013-.044v-.007l-.016-.052v-.001l-.005-.032-.004-.018-.008-.044v-.008l-.009-.052-.004-.016-.004-.031v-.004l-.004-.021-.004-.033v-.042l-.005-.013v-.056z" fill="#d1d2d3" fill-rule="nonzero"/><path d="m447.896 348.138c-1.143.662-2.081 2.281-2.077 3.6.005 1.317.946 1.853 2.094 1.192l1.273-.738c1.148-.662 2.085-2.282 2.081-3.599s-.946-1.854-2.093-1.192z" fill="#949698" fill-rule="nonzero"/><path d="m483.512 369.071c-.437.253-.794.845-.832 1.36l-.004.093c0 .534.378.749.845.481.462-.269.836-.919.836-1.452l-.004-.09c-.042-.467-.404-.644-.841-.392z" fill="#a01d25" fill-rule="nonzero"/><path d="m485.568 367.91c-.442.252-.799.845-.837 1.359l-.004.093c0 .534.378.75.845.481.462-.268.841-.918.837-1.452l-.005-.089c-.038-.468-.399-.645-.836-.392z" fill="#a01d25" fill-rule="nonzero"/><path d="m498.216 360.883c-.441.253-.799.845-.836 1.359l-.005.094c0 .534.379.749.845.481.463-.269.841-.919.837-1.453l-.004-.089c-.038-.468-.4-.645-.837-.392z" fill="#a01d25" fill-rule="nonzero"/><path d="m500.267 359.721c-.441.254-.798.846-.836 1.36l-.004.093c.004.534.378.75.845.481.466-.268.84-.918.836-1.453v-.088c-.042-.468-.403-.645-.841-.393z" fill="#a01d25" fill-rule="nonzero"/><path d="m415.823 322.449 2.69-8.319 13.002 7.507-.038 13.821v2.494l-5.465-3.158c-.756-.82-1.593-1.516-2.475-2.025-3.053-1.761-5.595-.693-6.121 2.343l-1.626-.939z" fill="#d3d3d3" fill-rule="nonzero"/><path d="m482.176 364.782-.021 7.76-3.01-1.741v-5.288l-47.668-27.561v-2.494z" fill="#32343f" fill-rule="nonzero"/><path d="m436.092 334.288-.037-.027-.097-.064-.042-.029-.109-.079-.026-.017c-.042-.032-.084-.066-.126-.1l-.033-.028-.093-.079-.038-.035-.092-.085-.03-.028c-.037-.038-.075-.077-.113-.116l-.025-.026-.089-.097-.037-.04-.08-.093-.03-.038c-.037-.043-.071-.087-.105-.132l-.012-.016c-.03-.04-.059-.081-.089-.122l-.033-.044-.068-.104-.029-.045-.017-.026-.046-.074-.038-.06c-.021-.038-.042-.077-.067-.115l-.025-.048c-.03-.055-.063-.11-.089-.167l-.016-.032c-.021-.043-.042-.085-.063-.129l-.005-.009c-.037-.075-.071-.15-.101-.227l-.025-.06c-.025-.06-.05-.12-.071-.181l-.017-.04-.013-.037c-.016-.047-.033-.094-.05-.142l-.03-.08c-.016-.056-.033-.114-.05-.172l-.017-.047v-.009c-.021-.062-.038-.125-.054-.189l-.009-.032c-.021-.075-.038-.151-.054-.228l-.005-.006c-.008-.044-.016-.09-.029-.136l-.017-.08c-.013-.063-.021-.126-.034-.19l-.008-.037v-.001c-.013-.074-.025-.149-.034-.225l-.012-.072c-.004-.045-.013-.09-.017-.135l-.004-.023-.009-.085c-.008-.048-.012-.098-.016-.148l-.009-.093-.008-.087-.004-.06-.005-.088c-.004-.05-.008-.103-.012-.155l-.004-.085v-.036c-.005-.05-.005-.1-.005-.15l-.004-.055c0-.077 0-.153-.004-.231v-.026c0-.081.004-.163.004-.243v-.074l.004-.089.005-.087v-.084c.004-.066.008-.132.012-.197v-.055l.004-.013c.005-.08.009-.158.017-.239l.004-.064c.005-.045.009-.09.013-.136l.004-.054.009-.087c.008-.059.012-.117.021-.177l.012-.082.004-.043c.005-.054.013-.109.021-.162l.009-.054c.008-.08.021-.16.033-.239l.005-.019.008-.069c.013-.064.025-.127.034-.191l.017-.091.016-.089.017-.083.017-.098c.013-.059.025-.118.038-.178l.017-.086.008-.028c.013-.072.029-.142.046-.213l.005-.023c.02-.08.042-.16.058-.24l.009-.023.021-.085c.012-.06.029-.121.046-.182l.025-.1.025-.095.021-.074.03-.101c.017-.057.034-.115.05-.172l.03-.095.012-.039c.017-.056.034-.111.051-.166l.021-.059c.021-.066.042-.131.063-.197l46.058 26.603-.009.028-.021.065c-.029.088-.059.175-.088.263l-.017.058c-.021.068-.042.137-.063.206l-.029.095c-.017.057-.034.115-.051.171l-.029.102c-.017.057-.034.113-.046.17l-.03.099c-.012.061-.029.121-.046.182l-.021.085c-.021.087-.042.175-.063.263l-.004.023c-.021.08-.038.16-.055.241l-.017.086c-.012.059-.025.118-.038.178l-.021.097c-.008.058-.021.115-.029.172l-.017.092c-.012.064-.025.128-.033.191l-.013.069c-.013.086-.025.172-.038.258l-.008.052c-.009.069-.017.138-.026.207l-.008.082c-.008.059-.017.118-.021.177l-.008.087c-.009.063-.013.127-.021.19l-.005.064c-.004.085-.012.168-.016.252l-.005.055c-.004.065-.004.131-.008.196l-.004.085c0 .059-.004.118-.004.177l-.005.072v.244c0 .086 0 .172.005.256v.056c.004.062.004.124.008.186l.004.084c.004.052.004.105.009.156l.008.088c.004.049.008.098.013.146l.008.094c.004.05.008.099.013.148l.012.085c.004.053.013.105.021.157l.009.073c.012.076.025.151.038.225l.008.043c.008.062.021.124.034.185l.016.079c.009.048.021.096.03.143.021.077.038.152.054.227l.013.03c.017.065.034.128.05.191l.017.056c.017.058.038.117.055.173l.029.08c.013.047.03.095.047.142l.029.076c.025.062.046.122.076.182l.021.06c.033.077.067.152.101.226.025.047.046.094.071.14l.013.03c.029.057.058.113.088.168l.029.048c.021.038.042.077.068.114l.033.061.063.099.03.046.071.103.03.044c.029.042.058.083.092.124l.009.015c.033.045.071.089.105.132l.033.038.08.092.034.042.088.095.025.027c.038.039.076.078.118.116l.029.028.089.085.042.035.092.079.034.028c.042.034.084.068.126.1l.021.017.109.078.042.029.097.065.042.027c.046.028.088.056.139.083l-46.008-26.762c-.046-.026-.092-.055-.139-.083z" fill="#577abc" fill-rule="nonzero"/><path d="m418.954 316.179c-.092-.053-.176-.033-.206.05l-1.378 5.18c-.05.134.055.366.206.453l7.575 4.374c.122.07.218.014.218-.125l.017-5.966c0-.138-.097-.307-.218-.376z" fill="#70575d" fill-rule="nonzero"/><path d="m422.851 312.41c.644 0 1.161.313 1.161.54v1.761c0 .226-.517.41-1.161.41-.643 0-1.16-.184-1.16-.41v-1.761c0-.227.517-.54 1.16-.54z" fill="#faaf41" fill-rule="nonzero"/><path d="m422.851 314.652c.644 0 1.161-.184 1.161-.411v.47c0 .226-.517.41-1.161.41-.643 0-1.16-.184-1.16-.41v-.47c0 .227.517.411 1.16.411z" fill="#404042" fill-rule="nonzero"/><path d="m424.012 312.928c-.034.217-.538.39-1.161.39-.622 0-1.126-.173-1.156-.39.03-.225.534-.518 1.156-.518.623 0 1.127.293 1.161.518z" fill="#ffca3f" fill-rule="nonzero"/><path d="m438.35 303.261c.639 0 1.16.314 1.16.54v1.762c0 .227-.521.41-1.16.41-.643 0-1.16-.183-1.16-.41v-1.762c0-.226.517-.54 1.16-.54z" fill="#faaf41" fill-rule="nonzero"/><path d="m438.35 305.504c.639 0 1.16-.184 1.16-.411v.47c0 .227-.521.41-1.16.41-.643 0-1.16-.183-1.16-.41v-.47c0 .227.517.411 1.16.411z" fill="#404042" fill-rule="nonzero"/><path d="m439.506 303.78c-.03.217-.538.389-1.156.389-.622 0-1.127-.172-1.16-.389.033-.224.538-.519 1.16-.519.618 0 1.126.295 1.156.519z" fill="#ffca3f" fill-rule="nonzero"/><path d="m251.865 300.826 36.768 21.395-28.46 3.509-36.858-21.448z" fill="#d18084" fill-rule="nonzero"/><path d="m223.315 304.282v13.055l36.858 21.448v-13.055z" fill="#d3d3d3" fill-rule="nonzero"/><path d="m260.173 325.73v13.055l28.46-16.564z" fill="#e2e4e5" fill-rule="nonzero"/><path d="m303.079 270.921 36.768 21.396-28.46 3.508-36.858-21.447z" fill="#d18084" fill-rule="nonzero"/><path d="m274.529 274.378v13.056l36.858 21.447v-13.056z" fill="#d3d3d3" fill-rule="nonzero"/><path d="m311.387 295.825v13.056l28.46-16.564z" fill="#e2e4e5" fill-rule="nonzero"/><path d="m354.32 241.018 36.768 21.395-28.46 3.509-36.858-21.448z" fill="#d18084" fill-rule="nonzero"/><path d="m325.77 244.474v13.056l36.858 21.447v-13.055z" fill="#d3d3d3" fill-rule="nonzero"/><path d="m362.628 265.922v13.055l28.46-16.564z" fill="#e2e4e5" fill-rule="nonzero"/><path d="m448.009 287.817v-12.804l-46.373 26.769v12.998z" fill="#9b7371" fill-rule="nonzero"/><path d="m424.735 213.412-3.8-2.196-17.558 10.214 3.8 2.197z" fill="#5e525c" fill-rule="nonzero"/><path d="m417.13 209.023-3.8-2.196-17.558 10.215 3.8 2.196z" fill="#5e525c" fill-rule="nonzero"/><path d="m409.526 204.634-3.8-2.196-17.557 10.215 3.799 2.196z" fill="#5e525c" fill-rule="nonzero"/><path d="m401.922 200.246-3.799-2.197-17.557 10.216 3.799 2.195z" fill="#5e525c" fill-rule="nonzero"/><path d="m394.319 195.856-3.798-2.196-17.559 10.216 3.799 2.196z" fill="#5e525c" fill-rule="nonzero"/><path d="m386.716 191.468-3.8-2.196-17.558 10.215 3.799 2.196z" fill="#5e525c" fill-rule="nonzero"/><path d="m379.112 187.079-3.8-2.196-17.557 10.215 3.799 2.196z" fill="#5e525c" fill-rule="nonzero"/><path d="m371.508 182.69-3.799-2.196-17.558 10.215 3.8 2.196z" fill="#5e525c" fill-rule="nonzero"/><path d="m363.905 178.301-3.799-2.196-17.558 10.215 3.799 2.196z" fill="#5e525c" fill-rule="nonzero"/><path d="m356.301 173.912-3.8-2.196-17.556 10.215 3.798 2.197z" fill="#5e525c" fill-rule="nonzero"/><path d="m348.698 169.523-3.8-2.196-17.558 10.215 3.8 2.196z" fill="#5e525c" fill-rule="nonzero"/><path d="m341.094 165.135-3.799-2.196-17.558 10.214 3.799 2.197z" fill="#5e525c" fill-rule="nonzero"/><path d="m333.491 160.746-3.8-2.196-17.558 10.215 3.8 2.196z" fill="#5e525c" fill-rule="nonzero"/><path d="m325.887 156.357-3.8-2.197-17.557 10.216 3.799 2.196z" fill="#5e525c" fill-rule="nonzero"/><path d="m318.283 151.968-3.799-2.196-17.558 10.215 3.8 2.196z" fill="#5e525c" fill-rule="nonzero"/></g></svg>