<svg clip-rule="evenodd" fill-rule="evenodd" stroke-linejoin="round" stroke-miterlimit="2" viewBox="0 0 510 38" xmlns="http://www.w3.org/2000/svg"><path d="m417.876 1.041h3.07v12.619l5.466-5.46h4.079l3.891 8.999 3.783-8.999h2.173l3.751 8.999 3.87-8.999h3.147l-6.428 14.832h-1.163l-4.29-10.076-4.218 10.076h-1.183l-5.624-13.026-2.9 3.214 4.131 9.812h-3.108l-3.128-7.394-2.249 2.235v5.159h-3.07v-21.991zm81.205 17.254h2.946v.42c-.004.449.047.836.155 1.165.113.327.31.58.594.76.283.18.678.27 1.193.273.306 0 .589-.063.855-.19.266-.126.48-.319.647-.579s.252-.59.255-.99c.004-.323-.043-.599-.135-.836-.092-.236-.239-.443-.443-.623s-.474-.346-.808-.503c-.337-.157-.746-.313-1.231-.477-.654-.216-1.219-.453-1.7-.712-.48-.257-.879-.55-1.192-.883-.314-.333-.549-.723-.702-1.169-.154-.444-.229-.963-.229-1.553.004-.926.188-1.702.552-2.322.368-.623.886-1.093 1.561-1.406.672-.313 1.476-.47 2.406-.47.658 0 1.261.07 1.809.214.549.146 1.026.369 1.432.679.405.307.719.703.94 1.19.222.486.334 1.072.338 1.755v.4h-2.822c.003-.676-.123-1.196-.375-1.563-.255-.366-.661-.552-1.22-.555-.439.003-.78.086-1.026.242-.245.157-.416.36-.511.613-.099.25-.143.517-.139.803-.004.29.034.55.115.776.082.231.232.437.45.624.222.19.535.366.948.54l2.269.959c.549.233 1.005.479 1.367.743.361.259.644.543.852.846.207.303.354.636.439.996.085.363.126.76.123 1.193-.004 1.002-.205 1.829-.607 2.475-.398.646-.978 1.126-1.731 1.439-.756.31-1.666.463-2.733.463-1.107-.003-2.001-.166-2.686-.493-.681-.323-1.178-.796-1.492-1.413-.313-.619-.467-1.369-.464-2.252zm-10.16-10.095h8.158v2.443h-5.213v3.477h4.907v2.442h-4.907v3.974h5.417v2.443h-8.362zm-12.267 14.779v-14.779h5.439c.808 0 1.5.142 2.079.424.579.286 1.026.711 1.336 1.273.31.567.466 1.27.47 2.111 0 .66-.085 1.239-.262 1.739-.178.504-.444.918-.805 1.242-.357.321-.815.542-1.366.663v.041c.497.065.9.19 1.206.38.306.186.542.455.705.803.164.352.277.797.338 1.342s.095 1.208.103 1.987c.003.518.023.952.054 1.311.034.359.098.649.191.866.092.221.228.376.408.472v.125h-3.189c-.14-.211-.232-.449-.283-.715-.051-.265-.078-.545-.086-.837l-.081-2.836c-.017-.587-.164-1.042-.44-1.367-.276-.327-.708-.493-1.298-.496h-1.574v6.251zm2.945-12.522v4.243h1.227c.47.003.872-.072 1.198-.22.328-.147.58-.385.751-.707.17-.326.259-.751.259-1.277 0-.679-.178-1.19-.525-1.53-.348-.34-.852-.509-1.52-.509zm-15.518 5.132c-.004-.866.027-1.675.092-2.429.067-.75.194-1.431.385-2.039.191-.607.467-1.128.835-1.566.368-.435.848-.767 1.445-1.002.595-.233 1.332-.349 2.211-.353.879.004 1.616.12 2.212.353.597.235 1.08.567 1.445 1.002.368.438.644.959.835 1.566.19.608.317 1.289.385 2.039.064.754.096 1.563.092 2.429.004.867-.028 1.677-.092 2.427-.068.754-.195 1.434-.385 2.041-.191.608-.467 1.129-.835 1.564-.365.434-.848.77-1.445 1.002-.596.236-1.333.352-2.212.356-.879-.004-1.616-.12-2.211-.356-.597-.232-1.077-.568-1.445-1.002-.368-.435-.644-.956-.835-1.564-.191-.607-.318-1.287-.385-2.041-.065-.75-.096-1.56-.092-2.427zm2.945.037c-.004.985.019 1.827.071 2.52.051.697.146 1.26.289 1.692.14.433.344.748.614.951.269.199.617.299 1.049.295.434.004.781-.096 1.05-.295.269-.203.473-.518.614-.951.142-.432.238-.995.289-1.692.051-.693.075-1.535.071-2.52.004-.981-.02-1.818-.071-2.512-.051-.693-.147-1.256-.289-1.692-.141-.432-.345-.752-.614-.954s-.616-.302-1.05-.298c-.432-.004-.78.096-1.049.298-.27.202-.474.522-.614.954-.143.436-.238.999-.289 1.692-.052.694-.075 1.531-.071 2.512zm-13.003 7.406v-14.832h8.158v2.452h-5.214v3.489h4.907v2.451h-4.907v6.44zm-32.03 4.45h1.668l-1.098 1.2-2.037 2.232 1.893 4.684.488 1.197v.003h-1.386l-1.951-4.835-1.491 1.636v3.196h-1.34v-9.313h1.34v4.26l3.441-3.75zm2.391 0h5.296v1.204h-3.955v2.822h3.817v1.2h-3.817v2.897h4.075v1.212h-5.416zm29.954 9.346h-1.391l-1.691-4.179c-.488.005-1.6.002-1.6.002v4.182h-1.341v-9.351h2.357c1.893 0 3.053 1.001 3.068 2.613.012.938-.106 1.512-1.137 2.368zm-4.682-5.259h.866c1.437 0 1.849-.742 1.836-1.526-.014-.874-.536-1.406-1.836-1.406h-.866zm-7.643-4.087h5.304v1.204h-3.959v2.826h3.823v1.207h-3.823v2.902h4.082v1.207h-5.427zm-5.671 0h1.345v8.139h3.46v1.207h-4.805zm-5.663 0h1.342v8.139h3.462v1.207h-4.804zm76.689 1.503c-.591-.764-1.428-.943-2.074-.943-1.12 0-1.97.77-1.97 1.784 0 2.485 4.445 1.296 4.445 4.568 0 1.435-1.187 2.557-2.707 2.557-.767 0-1.588-.212-2.394-.82v-.85c.908.862 1.627 1.002 2.352 1.002 1.11 0 1.968-.811 1.968-1.862 0-2.653-4.441-1.491-4.441-4.572 0-1.377 1.199-2.469 2.679-2.478.755 0 1.713.312 2.142.824zm-6.723-1.515h.725v9.335h-.725v-8.274h-.028l-3.527 4.359-3.531-4.359h-.024v8.274h-.727v-9.335h.727l3.555 4.342zm-13.058-.066h.352l3.864 9.401h-.676l-1.322-3.233h-4.085l-1.327 3.233h-.673zm.168 1.175-1.789 4.398h3.592zm-19.599 8.226v-9.349h.727v9.349zm13.813 0v-9.349h.728v9.349zm-5.845-9.351h.72v8.745h3.852v.606h-4.572zm-5.909 0h.726v8.745h3.848v.606h-4.574zm-9.914-.042h.543l2.521 7.717 2.954-7.666h.787l-3.584 9.414h-.339l-2.622-8.298-2.574 8.298h-.337l-3.605-9.414h.769l2.998 7.671zm48.774 9.547c-.511 0-.927-.414-.927-.922 0-.513.416-.929.927-.929.508 0 .925.416.925.929 0 .508-.417.922-.925.922zm0-1.735c-.449 0-.81.363-.81.813 0 .443.361.804.81.804.442 0 .805-.361.805-.804 0-.45-.363-.813-.805-.813zm.358 1.335h-.154l-.181-.46h-.178v.46h-.146v-1.021h.26c.203 0 .33.112.33.287 0 .101-.011.16-.12.254zm-.513-.576h.094c.157 0 .204-.08.204-.163 0-.095-.062-.156-.204-.156h-.094zm-309.972-14.2v8.552h-8.075v-22.67h12.958c4.911 0 8.112.113 9.603.34 2.292.34 4.21 1.08 5.756 2.219s2.319 2.611 2.319 4.415c0 1.392-.445 2.562-1.336 3.511-.892.948-2.024 1.693-3.397 2.234s-2.769.899-4.187 1.075c-1.928.216-4.72.324-8.375.324zm0-10.283v6.433h4.42c3.182 0 5.31-.118 6.383-.355 1.073-.238 1.914-.609 2.524-1.114.609-.505.914-1.093.914-1.763 0-.824-.428-1.505-1.282-2.041-.856-.536-1.938-.871-3.247-1.005-.964-.103-2.901-.155-5.81-.155zm-71.793 13.686-2.958 5.149h-7.677l13.96-22.67h7.653l14.352 22.67h-7.873l-3.129-5.149zm7.066-12.233-4.841 8.413h9.78zm22.551 14.684c-3.15-2.057-4.724-4.869-4.724-8.436 0-3.773 1.583-6.704 4.749-8.791 3.165-2.088 7.328-3.132 12.487-3.132 4.506 0 8.166.82 10.98 2.459 1.675.969 2.931 2.361 3.769 4.175l-7.362 1.083c-.436-1.176-1.344-2.104-2.726-2.784s-3.061-1.02-5.038-1.02c-2.73 0-4.946.603-6.645 1.809-1.701 1.206-2.551 3.16-2.551 5.861 0 2.866.838 4.907 2.513 6.123 1.674 1.217 3.852 1.825 6.532 1.825 1.977 0 3.677-.386 5.101-1.16 1.423-.773 2.445-1.989 3.065-3.649l7.211 1.407c-1.105 2.474-2.944 4.312-5.515 5.513-2.571 1.202-5.833 1.802-9.786 1.802-4.891 0-8.911-1.029-12.06-3.085zm112.047-.204v-11.94l4.383 1.833v9.277c-1.466.263-2.928.54-4.383.83zm-5.261 1.115v-18.315l4.384 1.833v15.544c-1.467.298-2.929.611-4.384.938zm-18.323 5.021v-17.015l4.383-2.165v17.803c-1.47.442-2.931.901-4.383 1.377zm-5.26 1.817v-10.521l4.383-2.164v11.158c-1.471.491-2.932 1-4.383 1.527zm11.572-32.772 10.083 4.621v21.755c-3.4.797-6.763 1.672-10.083 2.632zm120.38 24.012h-13.148v-18.829h12.423v2.426h-7.558v5.415h7.096v2.453h-7.096v6.108h8.283zm7.304 0h-4.865v-18.829h6.747c2.173 0 3.823.159 4.952.48 2.462.72 3.707 2.32 3.707 4.827 0 2.347-1.216 4.294-3.33 5.067l4.633 8.455h-5.299l-3.793-7.681c-.261.027-.696.027-1.304.027h-1.448zm0-9.788h1.448c1.362 0 2.317-.16 2.867-.507.811-.56 1.216-1.547 1.216-2.96 0-1.467-.434-2.454-1.274-2.961-.492-.293-1.39-.426-2.693-.426h-1.564zm-94.958 9.788h-4.865v-16.403h-5.618v-2.426h16.13v2.426h-5.647zm32.7-1.04c-2.259.934-4.866 1.413-7.79 1.413-6.4 0-9.586-3.2-9.586-9.574 0-6.721 3.649-10.029 10.28-10.029 2.636 0 4.634.427 5.995 1.281v2.24c-1.795-.694-3.62-1.04-5.473-1.04-3.852 0-5.763 2.454-5.763 7.361 0 5.308 1.882 7.388 5.155 7.388 1.013 0 1.853-.107 2.519-.347v-5.094h-3.533v-2.373h8.196zm4.859 1.04h-3.36l7.211-18.829h4.923l6.98 18.829h-5.271l-1.94-5.281h-6.661zm7.819-7.734-2.578-7.735c-.318 1.12-1.187 3.707-2.577 7.735zm9.621 7.734v-18.829h5.994c2.288 0 4.112.159 5.415.48 3.91.96 5.88 3.867 5.88 8.694 0 3.601-1.275 7.735-5.213 8.989-1.419.453-3.736.666-6.922.666zm4.865-16.536v14.243h1.216c1.941 0 3.331-.347 4.228-1.014 1.303-1.04 1.969-3.174 1.969-6.348 0-3.28-.781-5.361-2.374-6.241-.724-.426-1.882-.64-3.533-.64zm-47.127.172h-4.894v-2.465h4.894zm-4.894 1.563h4.894v14.801h-4.894zm-257.062-11.825v38h-35.054v-38h35.054zm-5.366 29.117v-19.406c0-.702-.249-1.303-.749-1.801-.499-.499-1.089-.748-1.77-.748h-5.04v24.504h5.04c.681 0 1.271-.25 1.77-.748.5-.499.749-1.099.749-1.801zm-2.519 0h-2.52v-19.406h2.52zm-6.674-1.054v-9.924h-3.609v2.549h1.089v8.429h-2.519v-19.406h2.519v3.84h2.52v-2.787c0-1.042-.375-1.937-1.124-2.684-.749-.748-1.634-1.122-2.656-1.122-1.044 0-1.935.374-2.673 1.122-.737.747-1.106 1.642-1.106 2.684v17.299c0 1.042.369 1.937 1.106 2.685.738.748 1.629 1.122 2.673 1.122 1.022 0 1.907-.374 2.656-1.122s1.124-1.643 1.124-2.685zm-7.9-18.352v-2.549h-7.559v2.549h2.52v21.955h2.52v-21.955zm78.407-9.711v38h-55.483v-38h55.483zm-30.971 23.686-1.195.668v2.068h1.195zm6.233 5.481h.032l.816 2.507h1.055l.828-2.5.038.006-.044 2.494h1.45v-4.437h-2.015l-.697 2.388h-.031l-.804-2.388h-1.952v4.437h1.393zm6.241-1.93-1.752 4.437h1.582l.22-.652h1.413l.232.652h1.626l-1.733-4.437zm.772 1.548.358 1.097h-.722zm2.863-1.548v4.437h1.419l-.063-2.118h.025l1.231 2.118h1.526v-4.437h-1.419l.063 2.25h-.026l-1.268-2.25zm4.966 0v4.437h1.507v-4.437zm-37.594-20.128v6.127h4.118v-1.765h-2.037v-4.362zm4.76 1.636 2.081-1.163v-.473h-2.081zm5.237 4.664c.313 0 .619-.044.92-.134.3-.089.57-.225.81-.406.24-.182.434-.41.581-.684.148-.274.221-.596.221-.965 0-.317-.066-.583-.199-.796-.133-.214-.302-.394-.507-.541-.206-.147-.43-.267-.672-.359-.243-.093-.474-.174-.694-.243-.214-.069-.369-.127-.464-.173s-.143-.115-.143-.208c0-.098.046-.168.139-.212.092-.043.214-.065.364-.065.162 0 .344.045.546.135.202.089.373.22.512.393l1.283-1.306c-.318-.295-.686-.52-1.105-.676-.42-.155-.831-.233-1.236-.233-.301 0-.604.037-.911.112-.306.075-.582.198-.828.368-.245.17-.446.388-.602.654-.156.265-.234.588-.234.969 0 .271.043.503.13.697.086.193.203.359.351.497.147.139.316.256.507.351s.39.177.598.246c.214.07.392.13.534.182.141.052.253.1.334.143.08.043.137.085.169.125.031.041.047.09.047.148 0 .109-.047.184-.143.225-.095.04-.201.06-.316.06-.255 0-.502-.06-.742-.182-.24-.121-.432-.259-.576-.415l-1.258 1.367c.157.139.333.264.529.377.197.112.406.21.629.294s.454.147.694.191c.24.043.484.064.732.064zm5.047-6.3-2.419 6.127h2.185l.303-.9h1.951l.321.9h2.246l-2.393-6.127zm1.066 2.138.495 1.514h-.997zm2.117 15.186h.025l.648 1.989h.836l.658-1.984.03.005-.035 1.979h1.15v-3.52h-1.599l-.552 1.894h-.025l-.638-1.894h-1.549v3.52h1.106zm18.117-8.285 2.714-1.516v-.541h-2.714zm2.714-.477-2.714 1.516v4.895h2.714zm-36.833 10.84c.133 0 .266-.009.399-.027s.26-.042.381-.072.236-.066.343-.107c.108-.042.204-.087.287-.137v-1.924h-1.619v.93h.568v.268c-.03.017-.071.029-.125.038-.053.008-.104.012-.154.012-.282 0-.487-.077-.615-.231s-.192-.354-.192-.599c0-.123.022-.234.065-.333.043-.1.1-.185.169-.256.07-.071.151-.126.242-.164s.185-.057.281-.057c.146 0 .269.025.369.077.099.051.186.12.259.206l.692-.83c-.156-.156-.358-.278-.605-.368-.247-.089-.509-.134-.784-.134-.266 0-.515.044-.747.132-.233.087-.435.212-.608.375-.173.162-.309.358-.408.586-.1.229-.15.484-.15.766s.05.537.15.765c.099.229.236.424.41.585.175.16.381.284.618.37s.496.129.774.129zm2.984-3.609-1.39 3.52h1.255l.174-.517h1.121l.184.517h1.29l-1.374-3.52zm.612 1.228.284.87h-.573zm4.338 2.292v-1.442l1.4-2.078h-1.395l-.533 1.034-.558-1.034h-1.429l1.33 2.078v1.442zm1.609-3.52v3.52h1.145v-1.258h.035l.677 1.258h1.365l-.896-1.427c.199-.089.351-.216.458-.38.106-.164.159-.354.159-.569 0-.222-.041-.407-.124-.555-.083-.147-.192-.265-.327-.353-.134-.087-.287-.149-.458-.184-.171-.034-.343-.052-.515-.052zm1.135 1.487v-.567h.284c.037 0 .076.002.12.007.043.005.083.017.119.035.037.018.067.046.09.082.023.037.035.086.035.149s-.014.114-.043.152c-.028.038-.063.068-.104.089-.042.022-.087.036-.135.043-.048.006-.092.01-.132.01zm2.421-.503 1.195-.667v-.317h-1.195zm6.399-9.795-3.154 7.991h2.849l.396-1.174h2.544l.418 1.174h2.929l-3.121-7.991zm1.391 2.788.645 1.975h-1.301zm5.156-2.788v7.991h2.601v-2.856h.079l1.538 2.856h3.098l-2.035-3.239c.452-.203.799-.491 1.04-.864.241-.372.362-.803.362-1.292 0-.504-.094-.924-.283-1.258-.188-.335-.435-.602-.74-.802-.306-.199-.652-.338-1.041-.417-.388-.079-.778-.119-1.17-.119zm2.578 3.375v-1.287h.645c.083 0 .173.006.271.017s.189.038.272.079.151.104.203.186c.053.083.079.196.079.339s-.032.258-.096.344c-.064.087-.143.154-.237.203s-.196.081-.305.096c-.11.015-.21.023-.3.023zm-8.651 5.436v3.52h2.51v-.985h-1.395v-.328h1.23v-.919h-1.23v-.304h1.31v-.984zm3.003 0v3.52h1.125l-.05-1.681h.02l.977 1.681h1.21v-3.52h-1.126l.05 1.785h-.02l-1.006-1.785zm5.105 2.118.941 1.402h1.454l-1.389-1.909 1.324-1.611h-1.394l-.941 1.298h-.01v-1.298h-1.151v3.52h1.156v-1.402zm4.218 1.501c.275 0 .517-.038.725-.114.207-.076.381-.181.52-.313.139-.133.245-.29.316-.47.072-.181.107-.375.107-.584v-2.138h-1.18v2.009c0 .169-.041.3-.122.395-.081.094-.197.141-.346.141-.15 0-.265-.047-.346-.141-.082-.095-.122-.226-.122-.395v-2.009h-1.186v2.138c0 .209.034.403.1.584.066.18.168.337.304.47.136.132.306.237.51.313s.444.114.72.114zm-29.897-4.439v-5.722h1.968v-2.269h-6.626v2.269h1.967v5.722zm2.793-5.944 2.714-1.516v-.531h-2.714zm2.714-.477-2.714 1.517v4.904h2.714zm1.131 2.426c0 .632.113 1.205.339 1.721.226.515.535.959.927 1.331.392.373.854.661 1.386.864.531.203 1.098.304 1.701.304.671 0 1.271-.107 1.798-.321.528-.215.973-.502 1.335-.864l-1.651-1.975c-.129.173-.304.324-.526.452-.223.128-.488.192-.797.192-.219 0-.426-.04-.622-.119s-.368-.194-.515-.344c-.147-.151-.264-.329-.35-.536-.087-.207-.13-.442-.13-.705 0-.264.041-.503.124-.717.083-.215.198-.397.345-.548.147-.15.318-.265.514-.344s.407-.118.634-.118c.279 0 .531.051.757.152.226.102.415.25.566.446l1.651-1.986c-.37-.339-.83-.608-1.38-.807-.55-.2-1.135-.299-1.753-.299-.603 0-1.17.099-1.701.299-.532.199-.994.483-1.386.852-.392.368-.701.812-.927 1.331-.226.52-.339 1.099-.339 1.739zm25.535 4.815v3.52h2.366v-1.014h-1.171v-2.506zm-36.367 8.772h1.784c.33 0 .648-.044.954-.132.305-.087.575-.222.81-.404.234-.182.421-.414.562-.699.14-.284.21-.62.21-1.008 0-.427-.073-.78-.22-1.06-.146-.279-.342-.504-.587-.673s-.527-.288-.847-.357c-.321-.069-.656-.104-1.008-.104h-1.658zm1.438-3.171h.333c.314 0 .565.08.753.241.189.161.283.386.283.674 0 .347-.094.596-.283.749-.188.152-.458.229-.809.229h-.277zm4.747-1.266-1.752 4.437h1.582l.22-.652h1.413l.232.652h1.626l-1.733-4.437zm.772 1.548.358 1.097h-.722zm2.863-1.548v4.437h1.419l-.063-2.118h.025l1.231 2.118h1.525v-4.437h-1.419l.063 2.25h-.025l-1.268-2.25zm4.966 0v4.437h1.507v-4.437zm3.369 4.533-.643.359.444.791 1.737-.971-.192-.343c.117-.055.227-.121.33-.198.174-.132.314-.297.421-.495.106-.199.16-.432.16-.699 0-.23-.049-.422-.145-.577-.096-.154-.218-.285-.367-.391-.149-.107-.311-.194-.487-.26-.175-.067-.343-.126-.502-.176-.155-.05-.267-.092-.336-.125-.069-.034-.103-.084-.103-.151 0-.071.033-.122.1-.153s.155-.047.264-.047c.117 0 .249.032.395.097.147.065.27.16.371.285l.929-.946c-.23-.213-.497-.376-.801-.489-.303-.113-.601-.169-.894-.169-.218 0-.438.027-.659.081-.222.055-.422.143-.6.267-.178.123-.323.281-.436.473s-.17.426-.17.702c0 .196.031.364.094.504s.148.26.255.36c.106.101.229.185.367.254s.282.129.433.179c.155.05.284.094.386.131.103.038.183.073.242.104.058.031.099.061.122.091.023.029.035.064.035.106 0 .08-.035.134-.104.163s-.145.044-.229.044c-.184 0-.363-.044-.537-.132-.173-.087-.313-.188-.417-.3l-.911.99c.113.1.241.191.383.272.143.082.294.153.456.213.161.061.328.107.502.138zm1.477-24.661v6.127h1.96l-.087-2.925h.035l1.7 2.925h2.107v-6.127h-1.96l.087 3.107h-.035l-1.752-3.107zm8.871 6.3c.312 0 .618-.044.919-.134.301-.089.571-.225.811-.406.24-.182.433-.41.581-.684.147-.274.221-.596.221-.965 0-.317-.067-.583-.2-.796-.133-.214-.302-.394-.507-.541s-.429-.267-.672-.359c-.243-.093-.474-.174-.694-.243-.213-.069-.368-.127-.463-.173-.096-.046-.144-.115-.144-.208 0-.098.047-.168.139-.212.093-.043.214-.065.364-.065.162 0 .344.045.547.135.202.089.373.22.511.393l1.284-1.306c-.318-.295-.687-.52-1.106-.676-.419-.155-.831-.233-1.236-.233-.3 0-.604.037-.91.112s-.582.198-.828.368-.447.388-.603.654c-.156.265-.234.588-.234.969 0 .271.043.503.13.697.087.193.204.359.351.497.148.139.317.256.508.351.19.095.39.177.598.246.214.07.392.13.533.182.142.052.253.1.334.143s.137.085.169.125c.032.041.048.09.048.148 0 .109-.048.184-.143.225-.096.04-.201.06-.317.06-.254 0-.501-.06-.741-.182-.24-.121-.432-.259-.577-.415l-1.257 1.367c.156.139.332.264.529.377.196.112.406.21.628.294.223.084.454.147.694.191.24.043.484.064.733.064zm3.338-6.3v6.127h4.119v-1.765h-2.038v-4.362zm4.761 0v6.127h2.081v-6.127zm-30.193 1.513-2.081 1.162v3.452h2.081z" fill="#fff"/></svg>