<?xml version="1.0" encoding="UTF-8" standalone="no"?><!DOCTYPE svg PUBLIC "-//W3C//DTD SVG 1.1//EN" "http://www.w3.org/Graphics/SVG/1.1/DTD/svg11.dtd"><svg width="100%" height="100%" viewBox="0 0 300 65" version="1.1" xmlns="http://www.w3.org/2000/svg" xmlns:xlink="http://www.w3.org/1999/xlink" xml:space="preserve" xmlns:serif="http://www.serif.com/" style="fill-rule:evenodd;clip-rule:evenodd;stroke-linejoin:round;stroke-miterlimit:2;"><rect id="Artboard1" x="0" y="0" width="300" height="65" style="fill:none;"/><clipPath id="_clip1"><rect id="Artboard11" serif:id="Artboard1" x="0" y="0" width="300" height="65"/></clipPath><g clip-path="url(#_clip1)"><path d="M87.497,47.638c-0.649,0.672 -1.295,1.322 -1.937,1.952c-1.139,1.117 -2.201,2.077 -3.183,2.881c-0.983,0.805 -1.743,1.274 -2.279,1.408l0.134,-0.067c-0.492,0.134 -0.916,0.201 -1.273,0.201c-0.76,-0 -1.43,-0.168 -2.011,-0.503c-0.581,-0.335 -1.072,-0.771 -1.474,-1.307c-0.402,-0.536 -0.715,-1.149 -0.938,-1.843c-0.224,-0.692 -0.335,-1.374 -0.335,-2.044c-0,-0.446 0.022,-0.781 0.067,-1.005l-2.949,2.547c-1.654,1.43 -2.905,2.491 -3.753,3.183c-0.849,0.693 -1.609,1.039 -2.279,1.039c-0.492,-0 -1.005,-0.191 -1.541,-0.57c-0.536,-0.379 -1.016,-0.871 -1.441,-1.474c-0.424,-0.603 -0.781,-1.262 -1.072,-1.977c-0.29,-0.714 -0.436,-1.408 -0.436,-2.078c0,-1.742 0.593,-3.562 1.776,-5.462c1.183,-1.898 2.658,-3.652 4.423,-5.261c1.765,-1.608 3.653,-2.925 5.663,-3.954c2.011,-1.027 3.864,-1.541 5.563,-1.541c0.893,-0 1.642,0.19 2.245,0.569c0.603,0.381 1.083,1.151 1.441,2.313c1.027,-0.983 2.01,-1.475 2.949,-1.475c0.491,0 0.948,0.112 1.373,0.335c0.424,0.224 0.782,0.514 1.073,0.871c0.29,0.359 0.513,0.749 0.67,1.173c0.156,0.425 0.234,0.838 0.234,1.24c0,0.402 -0.045,0.693 -0.134,0.871c-0.224,0.268 -0.569,0.771 -1.038,1.508c-0.47,0.737 -0.984,1.542 -1.542,2.413c-0.559,0.871 -1.117,1.742 -1.675,2.614c-0.559,0.871 -0.995,1.553 -1.307,2.044l-0.335,1.139l3.753,-2.949c0.848,-0.67 1.709,-1.317 2.58,-1.943c0.871,-0.625 1.664,-1.173 2.379,-1.642c0.056,-0.037 0.111,-0.073 0.166,-0.108c0.468,-0.829 0.961,-1.686 1.48,-2.573c1.608,-2.748 3.306,-5.539 5.093,-8.377c1.787,-2.837 3.586,-5.607 5.395,-8.31c1.81,-2.703 3.462,-5.104 4.959,-7.205c1.497,-2.099 2.782,-3.786 3.854,-5.06c1.072,-1.273 1.742,-1.91 2.011,-1.91c0.223,0.134 0.524,0.347 0.904,0.637c0.379,0.291 0.759,0.626 1.14,1.005c0.379,0.38 0.703,0.782 0.971,1.207c0.268,0.425 0.402,0.837 0.402,1.239c0,0.313 -0.045,0.649 -0.134,1.006c-0.09,0.358 -0.368,0.904 -0.837,1.642c-0.47,0.737 -1.173,1.776 -2.111,3.116c-0.939,1.34 -2.257,3.15 -3.954,5.428c-1.163,1.565 -2.19,2.994 -3.083,4.29c-0.895,1.296 -1.732,2.524 -2.513,3.685c-0.783,1.163 -1.531,2.302 -2.246,3.418c-0.715,1.118 -1.43,2.279 -2.144,3.485c-0.045,0 -0.067,0.023 -0.067,0.067l0.469,0.268l2.212,-1.608c2.322,-1.786 4.232,-3.071 5.73,-3.854c1.496,-0.781 2.624,-1.172 3.384,-1.172c0.848,-0 1.34,0.559 1.474,1.675c-0.224,0.76 -0.525,1.273 -0.904,1.541c-0.38,0.269 -0.816,0.627 -1.307,1.073l-8.042,6.299c0.312,1.029 0.725,1.766 1.239,2.212c0.514,0.447 1.106,0.67 1.776,0.67c0.715,0 1.519,-0.223 2.413,-0.67c0.893,-0.446 1.787,-0.982 2.681,-1.608c0.893,-0.626 1.764,-1.296 2.614,-2.011c0.848,-0.714 1.63,-1.34 2.345,-1.876c0.54,-0.371 0.977,-0.603 1.314,-0.693c0.179,-0.173 0.362,-0.344 0.548,-0.514c1.765,-1.608 3.653,-2.925 5.663,-3.954c2.011,-1.027 3.864,-1.541 5.563,-1.541c0.893,-0 1.642,0.19 2.245,0.569c0.603,0.381 1.083,1.151 1.441,2.313c1.027,-0.983 2.01,-1.475 2.949,-1.475c0.491,0 0.948,0.112 1.373,0.335c0.425,0.224 0.782,0.514 1.073,0.871c0.29,0.359 0.513,0.749 0.67,1.173c0.156,0.425 0.234,0.838 0.234,1.24c0,0.402 -0.045,0.693 -0.134,0.871c-0.224,0.268 -0.569,0.771 -1.038,1.508c-0.47,0.737 -0.984,1.542 -1.542,2.413c-0.559,0.871 -1.117,1.742 -1.675,2.614c-0.559,0.871 -0.995,1.553 -1.307,2.044l-0.335,1.139l3.753,-2.949c0.848,-0.67 1.709,-1.317 2.58,-1.943c0.775,-0.557 1.488,-1.051 2.14,-1.484c0.648,-1.268 1.287,-2.471 1.918,-3.61c0.692,-1.25 1.341,-2.356 1.944,-3.317c0.603,-0.96 1.083,-1.619 1.441,-1.977c0.402,-0.402 0.848,-0.603 1.34,-0.603c0.402,-0 0.815,0.134 1.24,0.402c0.424,0.268 0.815,0.615 1.173,1.039c0.357,0.425 0.658,0.882 0.904,1.373c0.245,0.493 0.369,0.939 0.369,1.341c-1.028,1.608 -1.866,2.882 -2.513,3.82c-0.648,0.938 -1.23,1.809 -1.743,2.614c-0.514,0.804 -0.77,1.229 -0.77,1.273c0.402,-0.402 0.948,-0.982 1.642,-1.743c0.692,-0.759 1.463,-1.596 2.312,-2.513c0.848,-0.915 1.719,-1.843 2.613,-2.781c0.894,-0.938 1.743,-1.798 2.547,-2.58c0.804,-0.781 1.496,-1.418 2.078,-1.91c0.58,-0.491 0.982,-0.737 1.206,-0.737c0.357,-0 0.771,0.145 1.24,0.435c0.469,0.291 0.915,0.66 1.34,1.106c0.424,0.447 0.781,0.95 1.072,1.508c0.291,0.559 0.436,1.084 0.436,1.575c0,0.402 -0.123,0.838 -0.369,1.307c-0.246,0.469 -0.748,1.151 -1.507,2.044l-0,-0.201c-0.403,0.626 -0.85,1.385 -1.341,2.278c-0.492,0.895 -0.961,1.81 -1.407,2.748c-0.447,0.938 -0.849,1.833 -1.206,2.681c-0.359,0.849 -0.604,1.497 -0.738,1.943l10.187,-8.779c0.402,-0.446 0.826,-0.67 1.273,-0.67c0.357,-0 0.648,0.123 0.872,0.368c0.223,0.246 0.335,0.503 0.335,0.771c-0,0.268 -0.112,0.469 -0.335,0.603c-0.627,0.76 -1.431,1.776 -2.413,3.05c-0.983,1.273 -2,2.546 -3.049,3.82c-1.051,1.273 -2.067,2.435 -3.05,3.485c-0.983,1.05 -1.742,1.709 -2.278,1.977c-0.358,0.179 -0.761,0.268 -1.207,0.268c-0.581,-0 -1.229,-0.134 -1.943,-0.403c-0.715,-0.268 -1.397,-0.67 -2.044,-1.206c-0.648,-0.536 -1.185,-1.183 -1.609,-1.943c-0.425,-0.76 -0.636,-1.653 -0.636,-2.681c-0,-1.116 0.245,-2.48 0.737,-4.088c-0.849,0.849 -1.709,1.72 -2.58,2.614c-0.871,0.894 -1.687,1.742 -2.446,2.546c-0.761,0.804 -1.419,1.553 -1.977,2.245c-0.56,0.694 -0.972,1.263 -1.24,1.709l-0,-0.134l-0.737,1.274c-0.269,0.491 -0.649,0.737 -1.14,0.737c-0.402,-0 -0.837,-0.179 -1.307,-0.536c-0.469,-0.357 -0.904,-0.76 -1.306,-1.207c-0.403,-0.446 -0.738,-0.871 -1.006,-1.273c-0.268,-0.402 -0.402,-0.67 -0.402,-0.804c0,-0.268 0.179,-0.848 0.536,-1.743c0.106,-0.262 0.22,-0.539 0.345,-0.831c-0.633,0.655 -1.263,1.29 -1.89,1.904c-1.139,1.117 -2.201,2.077 -3.183,2.881c-0.983,0.805 -1.743,1.274 -2.279,1.408l0.134,-0.067c-0.492,0.134 -0.916,0.201 -1.273,0.201c-0.76,-0 -1.43,-0.168 -2.011,-0.503c-0.581,-0.335 -1.072,-0.771 -1.474,-1.307c-0.402,-0.536 -0.715,-1.149 -0.938,-1.843c-0.224,-0.692 -0.335,-1.374 -0.335,-2.044c-0,-0.446 0.022,-0.781 0.067,-1.005l-2.949,2.547c-1.654,1.43 -2.905,2.491 -3.753,3.183c-0.849,0.693 -1.609,1.039 -2.279,1.039c-0.492,-0 -1.005,-0.191 -1.541,-0.57c-0.536,-0.379 -1.016,-0.871 -1.441,-1.474c-0.424,-0.603 -0.781,-1.262 -1.072,-1.977c-0.29,-0.714 -0.436,-1.408 -0.436,-2.078c0,-0.432 0.037,-0.87 0.11,-1.312c-0.703,0.412 -1.417,0.794 -2.14,1.145c-1.519,0.737 -2.814,1.105 -3.887,1.105c-2.323,0 -4.379,-1.206 -6.165,-3.619l-2.48,2.279c-1.296,1.43 -2.324,2.614 -3.083,3.552c-0.76,0.938 -1.363,1.687 -1.809,2.245c-0.447,0.558 -0.816,0.96 -1.106,1.206c-0.291,0.245 -0.592,0.369 -0.905,0.369c-0.134,0 -0.412,-0.124 -0.837,-0.369c-0.425,-0.246 -0.86,-0.581 -1.307,-1.005c-0.446,-0.424 -0.849,-0.905 -1.207,-1.441c-0.357,-0.536 -0.536,-1.116 -0.536,-1.742c0,-0.089 0.012,-0.212 0.034,-0.369c0.023,-0.156 0.1,-0.412 0.234,-0.771c0.134,-0.357 0.325,-0.826 0.57,-1.407c0.029,-0.067 0.058,-0.137 0.09,-0.209Zm-18.792,-0.595l10.053,-8.712c-0,-0.223 -0.079,-0.391 -0.235,-0.503c-0.157,-0.111 -0.358,-0.19 -0.603,-0.235c-0.246,-0.044 -0.502,-0.055 -0.771,-0.033c-0.268,0.023 -0.469,0.056 -0.603,0.1c-0.536,0.224 -1.273,0.816 -2.211,1.776c-0.939,0.962 -1.855,1.955 -2.748,2.983c-0.894,1.028 -2.011,2.39 -3.351,4.088l0.469,0.536Zm51.124,-0l10.053,-8.712c-0,-0.223 -0.079,-0.391 -0.235,-0.503c-0.157,-0.111 -0.358,-0.19 -0.603,-0.235c-0.246,-0.044 -0.502,-0.055 -0.771,-0.033c-0.268,0.023 -0.469,0.056 -0.603,0.1c-0.536,0.224 -1.273,0.816 -2.211,1.776c-0.939,0.962 -1.855,1.955 -2.748,2.983c-0.894,1.028 -2.011,2.39 -3.351,4.088l0.469,0.536Zm134.46,0.468c-0.046,0.056 -0.092,0.112 -0.139,0.169c-1.05,1.273 -2.067,2.435 -3.049,3.485c-0.983,1.05 -1.743,1.709 -2.279,1.977c-0.358,0.179 -0.76,0.268 -1.206,0.268c-0.581,-0 -1.229,-0.134 -1.944,-0.403c-0.715,-0.268 -1.396,-0.67 -2.044,-1.206c-0.648,-0.536 -1.184,-1.183 -1.608,-1.943c-0.425,-0.76 -0.637,-1.653 -0.637,-2.681c0,-1.116 0.245,-2.48 0.738,-4.088c-0.85,0.849 -1.709,1.72 -2.581,2.614c-0.871,0.894 -1.687,1.742 -2.446,2.546c-0.76,0.804 -1.419,1.553 -1.977,2.245c-0.559,0.694 -0.972,1.263 -1.24,1.709l0,-0.134l-0.737,1.274c-0.268,0.491 -0.648,0.737 -1.139,0.737c-0.402,-0 -0.838,-0.179 -1.307,-0.536c-0.469,-0.357 -0.905,-0.76 -1.307,-1.207c-0.402,-0.446 -0.737,-0.871 -1.005,-1.273c-0.268,-0.402 -0.402,-0.67 -0.402,-0.804c-0,-0.268 0.179,-0.848 0.536,-1.743c0.358,-0.893 0.827,-1.954 1.407,-3.183c0.581,-1.228 1.23,-2.547 1.944,-3.954c0.714,-1.407 1.418,-2.736 2.111,-3.988c0.692,-1.25 1.34,-2.356 1.943,-3.317c0.604,-0.96 1.083,-1.619 1.441,-1.977c0.402,-0.402 0.848,-0.603 1.341,-0.603c0.402,-0 0.814,0.134 1.239,0.402c0.425,0.268 0.815,0.615 1.173,1.039c0.357,0.425 0.659,0.882 0.905,1.373c0.245,0.493 0.369,0.939 0.369,1.341c-1.029,1.608 -1.866,2.882 -2.514,3.82c-0.648,0.938 -1.229,1.809 -1.742,2.614c-0.514,0.804 -0.771,1.229 -0.771,1.273c0.402,-0.402 0.949,-0.982 1.642,-1.743c0.692,-0.759 1.463,-1.596 2.312,-2.513c0.849,-0.915 1.72,-1.843 2.614,-2.781c0.893,-0.938 1.742,-1.798 2.547,-2.58c0.804,-0.781 1.496,-1.418 2.077,-1.91c0.58,-0.491 0.982,-0.737 1.207,-0.737c0.357,-0 0.77,0.145 1.239,0.435c0.47,0.291 0.916,0.66 1.341,1.106c0.424,0.447 0.781,0.95 1.072,1.508c0.29,0.559 0.436,1.084 0.436,1.575c-0,0.402 -0.124,0.838 -0.369,1.307c-0.246,0.469 -0.749,1.151 -1.508,2.044l0,-0.201c-0.402,0.626 -0.849,1.385 -1.34,2.278c-0.492,0.895 -0.961,1.81 -1.408,2.748c-0.447,0.938 -0.849,1.833 -1.206,2.681c-0.358,0.849 -0.603,1.497 -0.737,1.943l9.333,-8.043c0.667,-1.601 1.437,-3.31 2.31,-5.126c1.408,-2.926 2.983,-5.931 4.725,-9.014c1.743,-3.082 3.485,-5.897 5.227,-8.444c1.743,-2.547 3.395,-4.635 4.96,-6.266c1.563,-1.631 2.837,-2.446 3.82,-2.446c0.357,-0 0.759,0.134 1.206,0.402c0.446,0.268 0.826,0.615 1.139,1.039c0.312,0.425 0.537,0.894 0.671,1.407c0.134,0.514 0.089,0.995 -0.134,1.441c-0.671,1.34 -1.642,2.96 -2.916,4.859c-1.273,1.899 -2.67,3.954 -4.188,6.165c-1.52,2.212 -3.061,4.469 -4.625,6.769c-1.564,2.302 -2.982,4.513 -4.255,6.635c-1.274,2.123 -2.324,4.066 -3.15,5.831c-0.827,1.765 -1.24,3.183 -1.24,4.255c0,0.045 0.022,0.067 0.067,0.067c0.089,0 0.279,-0.1 0.57,-0.301c0.29,-0.201 0.759,-0.57 1.407,-1.106c0.647,-0.536 1.508,-1.274 2.58,-2.212c1.073,-0.938 2.435,-2.144 4.088,-3.619c0.492,-0.446 0.972,-0.804 1.441,-1.072c0.066,-0.038 0.132,-0.073 0.198,-0.105c0.007,-0.01 0.013,-0.019 0.019,-0.029c0.76,-1.161 1.485,-2.279 2.179,-3.351c0.692,-1.072 1.306,-2.044 1.843,-2.915c0.536,-0.871 0.915,-1.552 1.139,-2.044l-0,0.134c0.402,-0.983 0.871,-1.475 1.407,-1.475c0.312,0 0.637,0.134 0.972,0.402c0.335,0.269 0.647,0.615 0.938,1.039c0.29,0.425 0.525,0.883 0.704,1.374c0.178,0.492 0.268,0.961 0.268,1.407c0,0.984 -0.258,1.91 -0.771,2.782c-0.514,0.871 -1.061,1.709 -1.642,2.513l0,-0.134l-0.536,0.804l0.134,0l-3.82,6.367c2.234,-1.921 4.3,-3.82 6.199,-5.697c1.899,-1.876 3.563,-3.562 4.993,-5.06c1.43,-1.496 2.591,-2.702 3.485,-3.619c0.893,-0.915 1.451,-1.373 1.676,-1.373c0.268,-0 0.569,0.112 0.904,0.335c0.335,0.224 0.648,0.514 0.939,0.871c0.29,0.358 0.558,0.749 0.804,1.173c0.245,0.425 0.412,0.837 0.502,1.239l0,0.403c0.044,0.134 0.067,0.313 0.067,0.536c0,0.224 -0.19,0.715 -0.569,1.474c-0.38,0.76 -0.827,1.598 -1.341,2.513c-0.514,0.917 -1.016,1.843 -1.507,2.782c-0.493,0.938 -0.872,1.72 -1.14,2.345l0,0.067c0.446,-0.536 0.927,-1.049 1.441,-1.541c0.513,-0.491 1.016,-0.915 1.508,-1.274l1.139,-0.804l-0.067,0l4.759,-4.021c0.402,-0.491 0.781,-0.737 1.139,-0.737c0.089,-0 0.144,0.011 0.167,0.033c0.022,0.024 0.078,0.034 0.168,0.034c0.67,-0.312 1.206,-0.469 1.608,-0.469c0.403,-0 0.604,0.179 0.604,0.536c-0,0.402 -0.191,0.938 -0.57,1.608c-0.38,0.671 -0.827,1.374 -1.34,2.112c-0.515,0.737 -1.051,1.43 -1.609,2.077c-0.559,0.648 -1.017,1.151 -1.374,1.508l0,-0.067c-2.591,3.083 -4.769,5.217 -6.534,6.4c-1.765,1.184 -2.96,1.776 -3.585,1.776c-0.627,0 -1.207,-0.223 -1.743,-0.67c-0.536,-0.446 -1.162,-1.206 -1.876,-2.279l-0.067,0c-0.537,-0.714 -0.805,-1.563 -0.805,-2.546c0,-0.089 0.011,-0.19 0.034,-0.302c0.022,-0.111 0.033,-0.211 0.033,-0.301c-1.653,1.698 -2.993,3.082 -4.021,4.155c-1.028,1.072 -1.876,1.91 -2.546,2.513c-0.671,0.603 -1.207,1.017 -1.609,1.24c-0.402,0.224 -0.76,0.335 -1.072,0.335c-0.626,-0 -1.285,-0.134 -1.977,-0.402c-0.693,-0.268 -1.329,-0.626 -1.91,-1.073c-0.58,-0.446 -1.061,-0.982 -1.441,-1.608c-0.379,-0.625 -0.57,-1.295 -0.57,-2.011c0,-0.28 0.036,-0.588 0.106,-0.923c-0.719,0.65 -1.419,1.27 -2.099,1.862c-1.028,0.894 -1.943,1.687 -2.748,2.379c-0.804,0.693 -1.385,1.129 -1.742,1.307c-0.313,0.224 -0.548,0.402 -0.704,0.536c-0.157,0.134 -0.346,0.201 -0.569,0.201c-0.671,-0 -1.263,-0.179 -1.776,-0.536c-0.513,-0.357 -0.961,-0.805 -1.341,-1.341c-0.379,-0.536 -0.67,-1.128 -0.871,-1.776c-0.201,-0.647 -0.301,-1.284 -0.301,-1.91c-0,-0.292 0.029,-0.628 0.089,-1.006Zm-226.767,-2.981c-0.849,1.273 -1.608,2.424 -2.279,3.451c-0.715,0.894 -1.464,2.111 -2.245,3.653c-0.782,1.541 -1.564,3.049 -2.345,4.523c-0.783,1.475 -1.565,2.748 -2.346,3.82c-0.782,1.073 -1.508,1.609 -2.178,1.609c-0.224,-0 -0.615,-0.258 -1.173,-0.771c-0.559,-0.514 -0.838,-1.307 -0.838,-2.379c0,-0.313 0.044,-0.67 0.134,-1.072c0.089,-0.402 0.245,-0.939 0.47,-1.609c0.357,-1.117 0.792,-2.233 1.306,-3.351c0.514,-1.116 1.095,-2.289 1.743,-3.518c0.647,-1.228 1.384,-2.569 2.212,-4.021c0.826,-1.452 1.73,-3.094 2.714,-4.926c1.161,-2.145 2.233,-3.931 3.217,-5.361c0.982,-1.43 1.786,-2.703 2.412,-3.82c2.681,-3.529 4.769,-6.512 6.266,-8.947c1.497,-2.435 2.603,-4.256 3.318,-5.462l-0,0.134c0.446,-0.848 0.67,-1.497 0.67,-1.944c-0,-0.491 -0.201,-0.905 -0.603,-1.24c-0.402,-0.335 -0.905,-0.603 -1.508,-0.804c-0.603,-0.201 -1.296,-0.345 -2.078,-0.435c-0.782,-0.09 -1.531,-0.134 -2.245,-0.134c-1.296,-0 -2.68,0.1 -4.155,0.301c-1.474,0.201 -2.982,0.469 -4.524,0.804c-1.541,0.335 -3.06,0.715 -4.557,1.14c-1.497,0.425 -2.915,0.837 -4.255,1.239l0.067,0c-0.269,0.09 -0.47,0.157 -0.604,0.201c-0.134,0.045 -0.246,0.067 -0.335,0.067l-0.067,-0.067c-3.128,1.207 -5.529,2.068 -7.204,2.581c-1.676,0.514 -2.96,0.77 -3.854,0.77c-0.894,0 -1.698,-0.357 -2.412,-1.072c-0.715,-0.714 -1.073,-1.429 -1.073,-2.144c0,-0.983 0.815,-1.854 2.447,-2.614c1.63,-0.759 3.674,-1.43 6.132,-2.011c2.456,-0.58 5.137,-1.072 8.042,-1.474c2.904,-0.402 5.651,-0.726 8.243,-0.972c2.591,-0.245 4.825,-0.424 6.702,-0.536c1.876,-0.111 2.993,-0.168 3.351,-0.168c5.495,0 8.243,2.436 8.243,7.305c-0,0.761 -0.134,1.632 -0.402,2.614c-0.268,0.983 -0.682,2.111 -1.24,3.384c-0.559,1.274 -1.273,2.726 -2.145,4.357c-0.871,1.631 -1.91,3.518 -3.116,5.663l-0.201,0.402c1.966,-0.178 4.048,-0.369 6.247,-0.57c2.199,-0.201 4.215,-0.301 6.048,-0.301c0.491,-0 0.96,0.011 1.407,0.033c0.446,0.023 0.848,0.057 1.206,0.101l2.882,-4.357c0.67,-1.116 1.396,-2.289 2.178,-3.518c0.781,-1.228 1.552,-2.413 2.312,-3.552c0.76,-1.139 1.519,-2.212 2.279,-3.217c0.759,-1.005 1.474,-1.843 2.145,-2.513l-0,0.067c0.804,-0.893 1.664,-1.541 2.58,-1.943c0.915,-0.403 1.709,-0.604 2.379,-0.604c0.536,0 0.972,0.112 1.307,0.335c0.335,0.225 0.502,0.56 0.502,1.006c0,0.447 -0.425,1.273 -1.273,2.479c-0.849,1.207 -1.876,2.626 -3.083,4.256c-1.206,1.631 -2.457,3.418 -3.753,5.361c-1.296,1.944 -2.368,3.899 -3.217,5.865l-0.134,0.335c0.671,0.09 1.631,0.179 2.882,0.268c1.25,0.09 2.49,0.257 3.72,0.502c1.228,0.246 2.3,0.603 3.216,1.073c0.916,0.469 1.374,1.128 1.374,1.977c0,1.028 -0.715,1.541 -2.144,1.541c-0.536,0 -1.508,-0.089 -2.916,-0.268c-1.407,-0.178 -2.848,-0.268 -4.322,-0.268l-3.753,-0.134c-2.503,4.289 -4.435,7.953 -5.797,10.991c-1.364,3.039 -2.424,5.495 -3.184,7.372l0,-0.134l-0.402,1.005c-0.626,1.518 -1.139,2.859 -1.54,4.021c-0.402,1.161 -0.581,1.832 -0.537,2.011c1.018,-0.448 1.747,-0.671 2.189,-0.671c0.354,0 0.586,0.202 0.697,0.604c0.111,0.402 0.166,1.072 0.166,2.01c0,0.58 -0.188,1.049 -0.564,1.408c-0.376,0.357 -0.874,0.536 -1.492,0.536c-0.841,-0 -1.549,-0.235 -2.124,-0.704c-0.575,-0.469 -1.05,-1.05 -1.426,-1.743c-0.376,-0.693 -0.641,-1.407 -0.796,-2.144c-0.155,-0.737 -0.233,-1.374 -0.233,-1.91c0,-2.101 0.514,-4.769 1.542,-8.009c1.027,-3.239 2.389,-6.779 4.088,-10.622c0.357,-0.67 0.647,-1.217 0.871,-1.642c0.223,-0.424 0.402,-0.771 0.536,-1.039l0.335,-0.67c0.089,-0.178 0.178,-0.379 0.268,-0.603c-0.224,-0 -0.715,0.011 -1.474,0.033c-0.76,0.023 -1.575,0.045 -2.446,0.067c-0.871,0.023 -1.665,0.057 -2.379,0.101c-0.715,0.045 -1.14,0.067 -1.274,0.067l-4.892,0.603c-0.224,0 -0.536,0.045 -0.938,0.134c-0.402,0.09 -0.804,0.134 -1.206,0.134c-0.179,0.045 -0.57,0.459 -1.173,1.24c-0.603,0.782 -1.307,1.732 -2.111,2.848c-0.805,1.118 -1.632,2.312 -2.48,3.586Zm7.113,-11.646l-0.009,0.018l-0,0.067c-0,-0.033 0.003,-0.061 0.009,-0.085Zm0.031,-0.062c0.008,-0.008 0.017,-0.015 0.027,-0.02c0.044,-0.022 0.067,-0.078 0.067,-0.168l-0.094,0.188Zm191.433,-30.155c0.24,-0.415 0.55,-0.792 0.929,-1.129c0.402,-0.357 0.86,-0.659 1.374,-0.905c0.513,-0.245 1.039,-0.369 1.575,-0.369c1.116,0 2.054,0.448 2.815,1.341l0.067,0.067c0.58,0.626 0.871,1.273 0.871,1.943c-0,0.179 -0.213,0.526 -0.637,1.039c-0.425,0.514 -0.916,1.05 -1.474,1.608c-0.559,0.56 -1.096,1.062 -1.609,1.508c-0.514,0.447 -0.837,0.671 -0.971,0.671c-0.448,-0 -0.872,-0.134 -1.274,-0.403c-0.402,-0.268 -0.76,-0.613 -1.072,-1.038c-0.313,-0.424 -0.559,-0.894 -0.737,-1.408c-0.12,-0.344 -0.2,-0.694 -0.239,-1.05c-0.031,0.037 -0.063,0.074 -0.096,0.112c-0.447,0.514 -0.939,1.05 -1.475,1.608c-0.536,0.56 -1.061,1.062 -1.575,1.508c-0.514,0.447 -0.837,0.671 -0.971,0.671c-0.493,-0 -0.95,-0.145 -1.374,-0.436c-0.425,-0.29 -0.782,-0.659 -1.073,-1.106c-0.291,-0.446 -0.525,-0.927 -0.703,-1.441c-0.179,-0.513 -0.268,-0.994 -0.268,-1.441c-0,-0.491 0.1,-0.926 0.301,-1.306c0.201,-0.38 0.525,-0.793 0.972,-1.24c0.938,-0.849 1.988,-1.274 3.15,-1.274c0.982,0 1.843,0.38 2.58,1.14c0.431,0.444 0.735,0.887 0.914,1.33Zm16.075,6.511l0.134,-0c0.223,0.134 0.469,0.368 0.737,0.703c0.268,0.336 0.525,0.727 0.771,1.173c0.245,0.447 0.48,0.905 0.704,1.374c0.223,0.469 0.379,0.883 0.469,1.24c-0,1.251 -0.38,2.212 -1.139,2.882l0.067,-0.067c-2.637,2.234 -5.005,4.68 -7.104,7.338c-2.101,2.659 -4.088,5.563 -5.965,8.713c-1.876,3.149 -3.697,6.557 -5.462,10.22c-1.765,3.664 -3.63,7.596 -5.596,11.795c-0.894,1.965 -1.631,3.518 -2.211,4.658c-0.582,1.139 -0.962,1.709 -1.14,1.709c0.402,0.268 0.603,0.67 0.603,1.206c0,0.491 -0.179,0.938 -0.536,1.34c-0.358,0.402 -0.782,0.603 -1.273,0.603c-2.19,0 -3.284,-1.273 -3.284,-3.82c0.044,-1.385 0.335,-2.971 0.871,-4.758c0.536,-1.786 1.217,-3.663 2.044,-5.629c0.827,-1.966 1.743,-3.998 2.748,-6.099c1.005,-2.1 1.999,-4.132 2.982,-6.099c-2.948,3.039 -5.83,5.864 -8.645,8.478c-2.815,2.614 -5.451,4.892 -7.908,6.836c-2.458,1.944 -4.669,3.518 -6.635,4.725c-1.966,1.206 -3.619,1.898 -4.959,2.077c-1.252,0 -2.379,-0.279 -3.385,-0.837c-1.005,-0.56 -1.866,-1.263 -2.58,-2.112c-0.715,-0.849 -1.273,-1.775 -1.675,-2.781c-0.402,-1.005 -0.603,-1.954 -0.603,-2.848c-0,-0.938 0.201,-1.987 0.603,-3.15c0.402,-1.161 1.15,-2.669 2.245,-4.524c1.094,-1.853 2.624,-4.199 4.591,-7.036c1.965,-2.837 4.512,-6.423 7.64,-10.757c1.295,-1.742 2.379,-3.217 3.25,-4.423c0.871,-1.206 1.575,-2.222 2.111,-3.049c0.536,-0.827 0.927,-1.475 1.173,-1.944c0.245,-0.469 0.412,-0.838 0.503,-1.106c0.58,-1.34 1.206,-2.245 1.876,-2.714c0.67,-0.469 1.284,-0.613 1.843,-0.435c0.558,0.179 1.027,0.626 1.407,1.34c0.379,0.715 0.57,1.564 0.57,2.547c0,0.536 -0.123,1.172 -0.369,1.91c-0.246,0.737 -0.681,1.709 -1.306,2.915c-0.627,1.206 -1.475,2.748 -2.547,4.624c-1.072,1.877 -2.436,4.222 -4.088,7.037c-2.815,4.781 -5.161,8.97 -7.037,12.566c-1.877,3.597 -3.195,6.289 -3.954,8.075c0.893,-0.312 1.977,-0.814 3.25,-1.507c1.274,-0.693 2.624,-1.508 4.055,-2.447c1.429,-0.938 2.892,-1.965 4.39,-3.082c1.496,-1.117 2.915,-2.256 4.255,-3.418c0.804,-0.714 1.854,-1.686 3.15,-2.916c1.295,-1.228 2.703,-2.624 4.222,-4.188c1.519,-1.564 3.105,-3.217 4.758,-4.96c1.653,-1.742 3.261,-3.461 4.826,-5.16c1.563,-1.697 3.026,-3.317 4.389,-4.859c1.363,-1.541 2.514,-2.892 3.452,-4.054c2.01,-2.457 3.719,-4.289 5.127,-5.496c1.407,-1.206 2.49,-1.831 3.25,-1.876c0.089,-0 0.145,0.011 0.168,0.033c0.022,0.023 0.077,0.034 0.167,0.034Zm45.929,14.533c0.239,-0.416 0.549,-0.792 0.928,-1.13c0.403,-0.357 0.86,-0.658 1.374,-0.904c0.513,-0.245 1.039,-0.369 1.575,-0.369c1.116,-0 2.055,0.447 2.815,1.34l0.067,0.067c0.58,0.627 0.871,1.274 0.871,1.944c0,0.179 -0.212,0.526 -0.636,1.039c-0.426,0.514 -0.917,1.05 -1.475,1.608c-0.559,0.559 -1.095,1.062 -1.608,1.508c-0.514,0.447 -0.838,0.67 -0.972,0.67c-0.447,0 -0.871,-0.134 -1.273,-0.402c-0.402,-0.268 -0.761,-0.614 -1.073,-1.039c-0.313,-0.424 -0.559,-0.893 -0.737,-1.407c-0.12,-0.345 -0.2,-0.695 -0.239,-1.05c-0.031,0.036 -0.063,0.074 -0.096,0.112c-0.447,0.514 -0.938,1.05 -1.474,1.608c-0.537,0.559 -1.062,1.062 -1.575,1.508c-0.514,0.447 -0.838,0.67 -0.972,0.67c-0.492,0 -0.95,-0.144 -1.374,-0.435c-0.425,-0.29 -0.782,-0.659 -1.072,-1.106c-0.291,-0.446 -0.526,-0.927 -0.704,-1.441c-0.179,-0.513 -0.268,-0.994 -0.268,-1.441c0,-0.491 0.101,-0.927 0.302,-1.307c0.201,-0.379 0.524,-0.793 0.971,-1.24c0.939,-0.848 1.988,-1.273 3.15,-1.273c0.982,-0 1.843,0.38 2.58,1.139c0.431,0.444 0.736,0.888 0.915,1.331Z" style="fill:#fff;"/></g></svg>